<svg xmlns="http://www.w3.org/2000/svg" viewBox="0 0 178.37 110.64"><defs><style>.cls-1{isolation:isolate;}.cls-2{fill:#ecbc9b;}.cls-3{fill:#ed6c18;}.cls-4{mix-blend-mode:overlay;opacity:0.5;}.cls-5{fill:#f6d488;}.cls-6{fill:#f6a012;}.cls-7{fill:#e8a49c;}.cls-18,.cls-8{fill:#010101;}.cls-9{fill:#623b8d;}.cls-10{fill:#7c5da4;}.cls-11{fill:#6facde;}.cls-12{fill:#ef7887;}.cls-13{fill:#afcdab;}.cls-14{fill:#f08895;}.cls-15{fill:#362152;}.cls-16{fill:#26193e;}.cls-17{fill:#f08899;}.cls-18{opacity:0.1;}</style></defs><g class="cls-1"><g id="Layer_2" data-name="Layer 2"><g id="Capa_1" data-name="Capa 1"><path class="cls-2" d="M5.8,25.73s2.31-14.21,17.54-7.62S46.59,41.17,59.8,45.28s28.21-3,49,12.67c13.27,10,30.36,7.78,42.37,4.86,14.21-3.46,25.75,7.21,24.81,17s-10.65,20.94-34.48,9.73-31.74-12-43.65-13.13C78,74.54,68.05,65.83,58.19,60.86,53.08,58.29,51.47,57,36,58.23,21.54,59.34,2.28,41.06,5.8,25.73Z"/><path class="cls-3" d="M28.15,54.72c-11.26-4.09-23-18.17-20-27.52.62-1.93,2.58-5.32,5.46-6.74a6.43,6.43,0,0,1,6.36.39c2,1.18,4.91,3.79,8.54,7.09,6.87,6.21,16.27,14.73,25.65,18.48,7.14,2.88,14.82,3,22.23,3.14,6.16.12,12,.23,16.78,2a16.65,16.65,0,0,1,2.38,1.06,80.55,80.55,0,0,1,9.93,6.63c4.63,3.42,9.41,7,15.26,9.09a33.33,33.33,0,0,0,6.17,1.6c5.7.91,12.43-.62,18.93-2.1,7.26-1.66,14.12-3.22,19.19-1.37a10,10,0,0,1,3.4,2,14.56,14.56,0,0,1,2.79,17.16c-3.17,5.94-10,8.13-18.73,6A86.58,86.58,0,0,1,143.65,89a87.92,87.92,0,0,1-15.31-7.47c-4-2.31-7.19-4.08-10.14-4.36-5.9-.55-23.84-2.23-38.15-7.43a43.84,43.84,0,0,1-13.17-7,27,27,0,0,0-8.14-4.83c-4.91-1.78-9.58-1.65-14.53-1.51-4.34.12-8.83.24-13.73-.94A22,22,0,0,1,28.15,54.72Zm-9.9-33.6a5.2,5.2,0,0,0-4.23.23c-2.6,1.28-4.38,4.38-4.95,6.15C6.3,36.22,17.84,49.93,28.48,53.8a20.75,20.75,0,0,0,2.23.67c4.77,1.15,9.2,1,13.47.91,5-.13,9.82-.27,14.89,1.58a27.63,27.63,0,0,1,8.44,5,43.05,43.05,0,0,0,12.88,6.86c14.18,5.16,32,6.84,37.9,7.38a14,14,0,0,1,3.38.8,46.12,46.12,0,0,1,7.17,3.7A88.25,88.25,0,0,0,144,88.09a82.74,82.74,0,0,0,8.71,2.61c8.26,2,14.69,0,17.63-5.52a13.73,13.73,0,0,0-2.58-16,8.89,8.89,0,0,0-3.07-1.84c-4.81-1.74-11.53-.21-18.64,1.41-6.59,1.5-13.41,3-19.31,2.11a33.42,33.42,0,0,1-6.34-1.65c-6-2.17-10.83-5.76-15.51-9.22a79.46,79.46,0,0,0-9.81-6.56,17.93,17.93,0,0,0-2.26-1c-4.63-1.68-10.37-1.79-16.46-1.9-7.5-.14-15.27-.27-22.57-3.21-9.55-3.82-19-12.41-25.95-18.67-3.45-3.13-6.43-5.84-8.38-7A8.15,8.15,0,0,0,18.25,21.12Z"/><path class="cls-3" d="M29.55,52.63a7.35,7.35,0,0,1-.9-.37C21.18,48.75,10.21,37.94,10.36,30.2c.06-3.1,1.82-5.4,5.22-6.84a4.33,4.33,0,0,1,3.28-.06c2.32.85,4.56,3.35,7.39,6.51C30,34,34.73,39.28,41.4,42.24c3.73,1.65,8.16,3.56,12.67,5.2A94.37,94.37,0,0,0,84.62,53.3c5.61.18,10.39,2.18,15.52,6.43,3.16,2.62,8.48,5.36,15,7.72a105.28,105.28,0,0,0,14.94,4.18c6.09,1.23,12.39.16,18-.78,5.23-.89,9.76-1.66,13.13-.43a6.71,6.71,0,0,1,1.09.49c3.9,2.15,6.25,7.44,5,11.32-.74,2.33-3.36,6.1-12.64,5.1-6.35-.69-22.12-5.6-34.78-9.54-8.59-2.67-16-5-18.39-5.33a111.27,111.27,0,0,1-20.22-4.9c-5.07-1.84-8.88-3.93-11.35-6.21a20.74,20.74,0,0,0-7.25-4.26c-6.1-2.22-13.47-2.56-20-2.85C37.33,54,32.72,53.79,29.55,52.63Zm-11-28.4a3.38,3.38,0,0,0-2.56,0c-3,1.28-4.56,3.28-4.62,6C11.2,37.46,22,48.05,29.07,51.37c3,1.39,7.89,1.62,13.64,1.89,6.57.29,14,.63,20.27,2.9a21.8,21.8,0,0,1,7.59,4.47c2.35,2.19,6.06,4.22,11,6a110.83,110.83,0,0,0,20,4.85c2.46.36,9.91,2.68,18.54,5.36,12.62,3.93,28.34,8.82,34.6,9.49s10.47-.87,11.59-4.41-1-8.22-4.55-10.16a7,7,0,0,0-1-.43c-3.13-1.14-7.53-.39-12.63.47-5.64,1-12.05,2-18.31.79a107.4,107.4,0,0,1-15.09-4.22c-6.61-2.4-12-5.21-15.28-7.89-5-4.11-9.52-6-14.92-6.2a95.58,95.58,0,0,1-30.85-5.92c-4.55-1.66-9-3.58-12.74-5.24-6.87-3-11.64-8.38-15.48-12.66C22.89,27.53,20.61,25,18.52,24.23Z"/><path class="cls-3" d="M34.21,49.91c-.28-.1-.54-.2-.79-.31-6.87-3.05-19.47-11.67-19-17.28.14-1.84,1.6-3.14,4.33-3.87a3.81,3.81,0,0,1,2.38.12c2,.71,3.75,2.84,6,5.54,3.33,4,7.48,8.94,14.26,11.81,1.65.7,3.36,1.37,5.07,2C57,51.73,68.36,54.11,84.6,55.85c5.16.56,9.69,2.39,14.73,5.92,2.81,2,7.81,4.3,14.1,6.59a155.16,155.16,0,0,0,16.08,4.84c5.85,1.4,12.19.56,17.78-.18s10.36-1.35,13.56.25c3,1.5,4.49,4.28,3.68,6.77-.45,1.37-2.8,5.7-14.15,3.79-5.87-1-20-5.77-31.34-9.62-7.82-2.65-14.57-4.95-16.81-5.39l-1.53-.3a110.13,110.13,0,0,1-17-4.3,34.31,34.31,0,0,1-9.09-4.66A25,25,0,0,0,67.93,56C61.69,53.76,54,52.91,47.31,52.15,41.92,51.54,37.27,51,34.21,49.91ZM20.77,29.49A2.9,2.9,0,0,0,19,29.4c-2.29.61-3.5,1.62-3.61,3C15,37,26.15,45.3,33.82,48.7c2.87,1.27,7.81,1.82,13.59,2.47,4,.45,8.23.92,12.35,1.7a114.89,114.89,0,0,1-18.79-6c-7-3-11.22-8-14.62-12.1C24.19,32.15,22.49,30.11,20.77,29.49ZM68.26,55.11a25.4,25.4,0,0,1,7,3.67,33.39,33.39,0,0,0,8.83,4.52,110.41,110.41,0,0,0,16.81,4.26l1.54.3c2.3.46,9.08,2.76,16.94,5.42,11.31,3.84,25.39,8.61,31.18,9.59,8.41,1.41,12.25-.7,13.05-3.14.66-2-.65-4.31-3.18-5.58-3-1.47-7.58-.87-13-.15-5.68.75-12.11,1.6-18.14.15a152.29,152.29,0,0,1-16.18-4.87c-6.37-2.31-11.46-4.7-14.34-6.71-4.9-3.43-9.27-5.21-14.27-5.74C76.62,56,69.86,55,63.8,53.75A46.35,46.35,0,0,1,68.26,55.11Z"/><path class="cls-2" d="M51.52,40.2S59.48,44,62.76,45s4.65.87,9.62,1.32S66.78,66,64,64.52c-15.91-8.61-14.74-4-17.59-6.81C44.62,56,50.89,40.44,51.52,40.2Z"/><path class="cls-2" d="M115.46,60.35s8.68,3.07,12.19,3.65,4.92.38,10.13.29S132.92,87,129.94,85.43c-16.29-8.36-14.56-3.7-17.85-6.34C110.07,77.47,114.83,60.67,115.46,60.35Z"/><g class="cls-4"><path class="cls-2" d="M144.15,82.19C120.32,71,112.4,70.21,100.5,69.06,80.67,67.15,70.73,58.45,60.87,53.47c-5.11-2.57-6.72-3.83-22.23-2.63C24.83,51.9,6.59,35.17,8.18,20.28A14.17,14.17,0,0,0,5.8,25.73C2.28,41.06,21.54,59.34,36,58.23c15.51-1.2,17.12.06,22.23,2.63,9.86,5,19.79,13.68,39.62,15.59,11.91,1.15,19.82,1.91,43.65,13.13,23.61,11.11,33.35.32,34.45-9.44C171.52,86.62,161.64,90.42,144.15,82.19Z"/></g><path class="cls-5" d="M0,67.07S-1.17,52.73,15.19,55.43,43.32,72.21,57.14,73s26.66-9.68,50.57.48C123,80,139,73.72,150,68c12.95-6.78,26.72.79,28.19,10.56s-5.28,22.88-31.12,17.75-33.69-4-45.53-2.21C81.84,97,70.1,91,59.33,88.52c-5.58-1.26-7.45-2.09-22.21,2.81C23.4,95.88.3,82.8,0,67.07Z"/><path class="cls-6" d="M28.7,89.81C16.78,88.56,2,77.72,2.63,67.93c.13-2,1.22-5.78,3.67-7.85a6.43,6.43,0,0,1,6.27-1.17c2.25.67,5.67,2.5,10,4.82,8.16,4.38,19.34,10.38,29.35,11.76,7.62,1.06,15.1-.67,22.33-2.32,6-1.38,11.69-2.68,16.76-2.14a17.08,17.08,0,0,1,2.56.45,81.22,81.22,0,0,1,11.24,4c5.32,2.21,10.81,4.49,17,5.15a33.09,33.09,0,0,0,6.37.06c5.76-.49,11.92-3.6,17.87-6.61,6.64-3.35,12.92-6.53,18.29-6a9.87,9.87,0,0,1,3.79,1.16,14.56,14.56,0,0,1,6.85,16c-1.64,6.53-7.74,10.31-16.72,10.36a83.54,83.54,0,0,1-9.2-.44,89,89,0,0,1-16.66-3.55c-4.4-1.29-8-2.23-10.89-1.79-5.86.89-23.68,3.59-38.82,2a43.8,43.8,0,0,1-14.47-3.65,27,27,0,0,0-9.08-2.73c-5.18-.54-9.69.71-14.46,2-4.18,1.17-8.51,2.37-13.55,2.4A20.17,20.17,0,0,1,28.7,89.81ZM11,59.59a5.24,5.24,0,0,0-4.05,1.24C4.71,62.7,3.73,66.14,3.62,68,3,77.13,17.54,87.65,28.8,88.83a20.67,20.67,0,0,0,2.33.12c4.9,0,9.16-1.22,13.29-2.37,4.86-1.35,9.46-2.63,14.82-2.07a27.94,27.94,0,0,1,9.41,2.82,42.93,42.93,0,0,0,14.14,3.56c15,1.58,32.74-1.1,38.57-2a13.78,13.78,0,0,1,3.47,0,45.37,45.37,0,0,1,7.85,1.86,87.12,87.12,0,0,0,16.49,3.51,81.35,81.35,0,0,0,9.08.44c8.5,0,14.26-3.56,15.78-9.62a13.73,13.73,0,0,0-6.37-14.88,8.87,8.87,0,0,0-3.42-1C159.15,68.59,153,71.7,146.5,75c-6,3.05-12.28,6.2-18.23,6.71a33.45,33.45,0,0,1-6.56-.07c-6.34-.66-11.9-3-17.28-5.21a79.83,79.83,0,0,0-11.09-4A16.76,16.76,0,0,0,90.9,72c-4.9-.51-10.5.77-16.44,2.13-7.3,1.67-14.88,3.42-22.67,2.33C41.6,75.06,30.33,69,22.1,64.6c-4.1-2.2-7.65-4.11-9.81-4.74A7.1,7.1,0,0,0,11,59.59Z"/><path class="cls-6" d="M29.55,87.45c-.34,0-.65-.09-1-.15-8.1-1.61-21.35-9.45-23.07-17-.69-3,.45-5.68,3.41-7.9a4.31,4.31,0,0,1,3.17-.85c2.46.26,5.23,2.15,8.74,4.54,4.69,3.17,10.51,7.13,17.7,8.4,4,.7,8.78,1.49,13.56,2a94.36,94.36,0,0,0,31.06-1.68c5.49-1.19,10.6-.4,16.61,2.49,3.7,1.78,9.52,3.15,16.4,3.88a105.36,105.36,0,0,0,15.52.44c6.2-.28,12.06-2.84,17.23-5.09,4.87-2.13,9.08-4,12.64-3.59a7.25,7.25,0,0,1,1.18.22c4.3,1.14,7.86,5.71,7.6,9.77-.15,2.44-1.79,6.73-11,8-6.34.87-22.81-.08-36.06-.85-9-.52-16.74-1-19.13-.74a112.61,112.61,0,0,1-20.81.14c-5.36-.57-9.57-1.68-12.5-3.3a20.82,20.82,0,0,0-8.07-2.39c-6.46-.68-13.69.78-20.06,2.06C37.44,86.89,32.91,87.8,29.55,87.45ZM12,62.54a3.35,3.35,0,0,0-2.47.65c-2.61,2-3.64,4.29-3,6.9,1.61,7.06,14.64,14.73,22.3,16.25,3.23.63,8-.33,13.7-1.47,6.45-1.29,13.75-2.76,20.37-2.07a21.59,21.59,0,0,1,8.43,2.51c2.83,1.56,6.91,2.63,12.14,3.18a111.27,111.27,0,0,0,20.6-.14c2.47-.24,10.26.21,19.29.73,13.2.77,29.63,1.72,35.87.87s9.95-3.38,10.18-7.09-3-7.72-6.86-8.75a6.84,6.84,0,0,0-1-.19c-3.31-.35-7.4,1.44-12.14,3.51-5.26,2.29-11.2,4.88-17.59,5.18a107.3,107.3,0,0,1-15.66-.46c-7-.73-12.93-2.15-16.72-4-5.81-2.79-10.71-3.56-16-2.43A95.16,95.16,0,0,1,52,77.47c-4.81-.51-9.59-1.3-13.63-2-7.39-1.3-13.32-5.32-18.08-8.55C17,64.69,14.21,62.78,12,62.54Z"/><path class="cls-6" d="M33.42,83.68q-.45,0-.84-.12c-7.41-1.29-21.71-6.62-22.64-12.17-.3-1.82.8-3.43,3.27-4.8a3.84,3.84,0,0,1,2.34-.46c2.08.21,4.32,1.85,7.15,3.92,4.2,3.07,9.42,6.88,16.69,8,1.78.28,3.6.52,5.4.71,11.13,1.17,22.78.72,39-1.51,5.14-.7,10,0,15.72,2.19,3.2,1.23,8.63,2.29,15.28,3a154.9,154.9,0,0,0,16.78.82c6,0,11.95-2.39,17.21-4.46s9.72-3.82,13.22-3c3.25.73,5.39,3.07,5.2,5.68-.11,1.44-1.34,6.21-12.82,7.09-5.94.46-20.79-.78-32.73-1.77-8.23-.69-15.34-1.29-17.62-1.18l-1.56.09a110.21,110.21,0,0,1-17.5-.09,34.4,34.4,0,0,1-10-2.32,25,25,0,0,0-7.36-1.81c-6.61-.69-14.23.32-21,1.21C41.3,83.41,36.65,84,33.42,83.68Zm-18-16.58a2.94,2.94,0,0,0-1.76.35c-2.07,1.14-3,2.41-2.78,3.78.76,4.51,13.57,9.92,21.84,11.37,3.1.54,8-.12,13.78-.88,3.95-.53,8.21-1.09,12.4-1.33a114.32,114.32,0,0,1-19.69-1.34C31.73,77.87,26.4,74,22.13,70.85,19.41,68.86,17.26,67.29,15.45,67.1ZM67.72,80.51a25.3,25.3,0,0,1,7.66,1.88A33.63,33.63,0,0,0,85,84.64a111.81,111.81,0,0,0,17.35.08l1.57-.09c2.34-.11,9.48.49,17.74,1.18,11.91,1,26.72,2.23,32.58,1.77,8.5-.65,11.72-3.62,11.91-6.18.15-2.12-1.67-4-4.44-4.65-3.24-.72-7.57,1-12.65,3-5.33,2.1-11.36,4.48-17.56,4.53a154.33,154.33,0,0,1-16.88-.82c-6.74-.71-12.25-1.79-15.53-3.06-5.58-2.14-10.26-2.81-15.24-2.12C76,79.34,69.24,80,63.06,80.27A44.31,44.31,0,0,1,67.72,80.51Z"/><path class="cls-7" d="M47.88,70.08s8.64,1.8,12,1.9,4.72-.28,9.65-1-.66,20.54-3.76,19.73c-17.51-4.51-15.25-.28-18.71-2.35C45,87,47.32,70.47,47.88,70.08Z"/><path class="cls-7" d="M114.78,74.2s9.17.89,12.72.61,4.86-.82,9.9-2.18.75,23.18-2.51,22.42c-17.83-4.19-15-.08-18.85-1.85C113.69,92.12,114.25,74.66,114.78,74.2Z"/><g class="cls-4"><path class="cls-8" d="M147.9,88.47c-25.84-5.13-33.7-4-45.53-2.2C82.66,89.2,70.92,83.14,60.15,80.7c-5.58-1.26-7.44-2.1-22.21,2.81C24.79,87.87,3.06,76,1,61.21a14,14,0,0,0-1,5.86C.3,82.8,23.4,95.88,37.12,91.33c14.76-4.9,16.63-4.07,22.21-2.81C70.1,91,81.84,97,101.54,94.08c11.84-1.75,19.7-2.93,45.53,2.21,25.59,5.09,32.44-7.74,31.15-17.48C175.53,86.17,166.86,92.24,147.9,88.47Z"/></g><path class="cls-9" d="M5.06,95.18s-6.26-13,10-16.3,32.27,5.54,45.45,1.33S81.9,61.6,107.87,62.49c16.6.57,29.32-11,37.48-20.33,9.65-11,25.23-8.87,30.1-.28s3.3,23.26-22.65,27.75-32.88,8.4-43.29,14.3c-17.33,9.81-30.46,8.38-41.39,10-5.66.82-7.7.72-19.72,10.6C37.23,113.68,11,109.76,5.06,95.18Z"/><path class="cls-10" d="M40,106.1c-11.56,3.12-29.25-1.69-32.18-11-.6-1.93-.94-5.83.6-8.65a6.42,6.42,0,0,1,5.43-3.33c2.35-.2,6.2.29,11.06.9,9.2,1.16,21.78,2.74,31.62.43,7.5-1.75,13.86-6.05,20-10.19,5.12-3.44,10-6.7,14.87-8a18.93,18.93,0,0,1,2.56-.5,82.2,82.2,0,0,1,11.94-.27c5.75.15,11.7.31,17.72-1.31a33.28,33.28,0,0,0,6-2.22c5.2-2.54,9.83-7.65,14.31-12.59,5-5.52,9.71-10.74,14.93-12.14a10,10,0,0,1,3.95-.28,14.57,14.57,0,0,1,12.13,12.46C175.71,56,171.37,61.74,163,65a81.9,81.9,0,0,1-8.74,2.89,87.92,87.92,0,0,1-16.82,2.68c-4.57.37-8.24.78-10.81,2.25-5.15,2.93-20.81,11.85-35.51,15.8A43.7,43.7,0,0,1,76.3,90.42a27,27,0,0,0-9.45.72c-5,1.35-8.78,4.14-12.76,7.1-3.49,2.59-7.09,5.27-11.78,7.11A21.74,21.74,0,0,1,40,106.1ZM12.61,84.27a5.2,5.2,0,0,0-3.34,2.61c-1.4,2.54-1.07,6.1-.52,7.88,2.73,8.73,20.05,13.33,31,10.4a22.89,22.89,0,0,0,2.21-.73c4.57-1.79,8.12-4.43,11.56-7,4.05-3,7.88-5.86,13.09-7.26a27.92,27.92,0,0,1,9.79-.75,42.77,42.77,0,0,0,14.48-1.76C105.44,83.77,121,74.89,126.14,72a13.87,13.87,0,0,1,3.23-1.29,46.85,46.85,0,0,1,8-1.08A88.69,88.69,0,0,0,154,67a83.11,83.11,0,0,0,8.64-2.86c7.91-3.1,12-8.43,11.26-14.64a13.71,13.71,0,0,0-11.28-11.6,9.06,9.06,0,0,0-3.57.25c-4.94,1.33-9.56,6.44-14.46,11.85-4.54,5-9.23,10.19-14.6,12.81a34.53,34.53,0,0,1-6.14,2.29c-6.15,1.65-12.17,1.5-18,1.34a80.88,80.88,0,0,0-11.79.26,18.47,18.47,0,0,0-2.42.48c-4.76,1.28-9.53,4.49-14.58,7.89-6.21,4.18-12.66,8.54-20.32,10.32-10,2.35-22.7.76-32-.4-4.62-.59-8.62-1.09-10.86-.9A6.76,6.76,0,0,0,12.61,84.27Z"/><path class="cls-10" d="M39.94,103.59a8.56,8.56,0,0,1-.95.21c-8.13,1.41-23.32-1.15-27.64-7.57-1.72-2.57-1.6-5.46.36-8.59a4.24,4.24,0,0,1,2.65-1.93c2.38-.64,5.65.12,9.79,1.08,5.51,1.29,12.37,2.89,19.53,1.49,4-.79,8.73-1.76,13.37-3A94.51,94.51,0,0,0,85.43,72.54c4.7-3.08,9.75-4.18,16.4-3.64,4.09.33,10-.48,16.7-2.28a105.31,105.31,0,0,0,14.64-5.15c5.69-2.49,10.24-7,14.25-10.95,3.78-3.73,7.05-7,10.51-7.88a7.22,7.22,0,0,1,1.18-.23c4.42-.48,9.38,2.51,10.6,6.39.74,2.34.76,6.93-7.42,11.42-5.6,3.09-21.33,8.12-34,12.16-8.57,2.74-16,5.11-18.12,6.18a112,112,0,0,1-19.37,7.6C85.63,87.56,81.31,88,78,87.58a20.61,20.61,0,0,0-8.38.67c-6.27,1.69-12.5,5.64-18,9.13C47.1,100.24,43.2,102.72,39.94,103.59ZM14.61,86.65a3.36,3.36,0,0,0-2.07,1.51c-1.74,2.77-1.86,5.3-.37,7.53,4,6,19,8.48,26.65,7.15,3.24-.58,7.4-3.21,12.26-6.29C56.63,93,62.92,89,69.35,87.3a21.82,21.82,0,0,1,8.77-.7c3.19.45,7.39,0,12.47-1.39a110,110,0,0,0,19.18-7.53c2.22-1.11,9.65-3.48,18.26-6.24,12.59-4,28.27-9,33.79-12.08s8.07-6.73,7-10.27-5.55-6.13-9.55-5.7a6.21,6.21,0,0,0-1,.19c-3.22.87-6.4,4-10.08,7.64-4.07,4-8.69,8.58-14.55,11.15a106.87,106.87,0,0,1-14.78,5.2c-6.78,1.83-12.83,2.64-17,2.31-6.42-.52-11.27.52-15.78,3.48A95.21,95.21,0,0,1,57.3,86.22c-4.67,1.25-9.41,2.23-13.43,3-7.37,1.45-14.34-.18-19.95-1.49C20.08,86.85,16.76,86.08,14.61,86.65Z"/><path class="cls-10" d="M42.19,98.69c-.28.08-.55.14-.82.19-7.37,1.45-22.63,1.62-25.5-3.23-.93-1.59-.49-3.49,1.33-5.65a3.85,3.85,0,0,1,2-1.27c2-.55,4.7.18,8.09,1.09,5,1.35,11.26,3,18.46,1.5,1.76-.38,3.54-.81,5.3-1.28,10.81-2.9,21.51-7.51,35.81-15.4C91.42,72.13,96.18,71,102.33,71c3.43,0,8.87-1,15.33-2.69a153.48,153.48,0,0,0,16-5.27c5.59-2.2,10.3-6.53,14.46-10.34s7.71-7.06,11.25-7.58c3.3-.48,6.13.93,6.89,3.43.42,1.38,1,6.28-9.4,11.23-5.38,2.56-19.69,6.74-31.19,10.1-7.93,2.31-14.78,4.31-16.86,5.23l-1.43.64A111.92,111.92,0,0,1,91,82a34.28,34.28,0,0,1-10.12,1.4,25.08,25.08,0,0,0-7.53,1C66.91,86.08,60.16,89.76,54.21,93,49.45,95.6,45.35,97.84,42.19,98.69Zm-22.72-9a2.89,2.89,0,0,0-1.52.95C16.43,92.44,16,94,16.72,95.15,19,99.09,33,99.54,41.18,97.92c3.09-.61,7.45-3,12.56-5.77,3.49-1.91,7.26-4,11.08-5.7A114.26,114.26,0,0,1,46,92.28c-7.44,1.59-13.8-.13-18.92-1.51C23.8,89.9,21.23,89.2,19.47,89.68Zm53.6-6.27a25.12,25.12,0,0,1,7.82-1A33.26,33.26,0,0,0,90.71,81a110.33,110.33,0,0,0,16.22-6.16l1.43-.64c2.15-.94,9-2.95,17-5.28,11.47-3.34,25.74-7.51,31-10,7.7-3.67,9.64-7.6,8.89-10.05-.61-2-3-3.16-5.8-2.75-3.28.5-6.71,3.64-10.73,7.33-4.22,3.87-9,8.26-14.77,10.54a153,153,0,0,1-16,5.29C111.38,71,105.84,72,102.33,72c-6,0-10.59,1.06-15,3.49-6.93,3.83-13,6.89-18.7,9.36A43.15,43.15,0,0,1,73.07,83.41Z"/><path class="cls-11" d="M50.8,80.8s8.72-1.42,11.93-2.56S67,76.29,71.37,73.8,78.13,93.21,75,93.58c-18,2.07-14.34,5.21-18.31,4.51C54.19,97.67,50.42,81.36,50.8,80.8Z"/><path class="cls-11" d="M114.73,60.61s8.87-2.46,12.08-4,4.25-2.51,8.46-5.58,9,21.36,5.71,21.82c-18.14,2.5-14,5.32-18.25,5C120.15,77.73,114.39,61.23,114.73,60.61Z"/><g class="cls-4"><path class="cls-8" d="M150.76,62c-25.95,4.48-32.88,8.4-43.29,14.29-17.33,9.82-30.47,8.39-41.4,10-5.66.82-7.69.71-19.71,10.59-10.7,8.8-35.24,5.57-42.48-7.54a14.14,14.14,0,0,0,1.18,5.82c5.91,14.58,32.17,18.5,43.34,9.32,12-9.88,14.06-9.78,19.72-10.6,10.93-1.59,24.06-.16,41.39-10,10.41-5.9,17.33-9.81,43.29-14.3,25.7-4.45,27.49-18.88,22.79-27.5C175.71,50,169.81,58.74,150.76,62Z"/></g><path class="cls-12" d="M106.37,49.86s5.39,9.76,2.32,27.31-12.92,22.68-7.92,30.24c.54.82,2.9,2,2.67,2.88s-6.88.29-7.89-4c0,0-2.35-9.19.55-21.5,3.53-15-10.35-27.34.89-35.44C99,47.88,101.7,46.09,106.37,49.86Z"/><path class="cls-13" d="M91.51,55.67S96.72,74,95.93,79.13s-2.77,17.3-1.68,22.23a5.82,5.82,0,0,0,5.89.86s7.65-16.75,8.16-19.94a83.8,83.8,0,0,0,1.34-18C107.69,28,91.51,55.67,91.51,55.67Z"/><path class="cls-14" d="M88.92,44.5c4.35.41,12.56,4.68,5.57,15.3C92,63.67,83.78,65.18,79.3,70.17c-3.1,3.45,16.91.87,16.19,10.61,0,0-.07,4.68-1.21,3.91s-1.43-5-3.27-5.16S66.1,81.24,65.36,73.81,80.07,43.65,88.92,44.5Z"/><path class="cls-13" d="M85,44.41c4.23-2.36,13.86-1,12.45,11C97,59.15,94.14,61.65,87.5,65c0,0-9.67,4.28-7.59,6,1.51,1.28,8.19,1.41,11.77,2.93A7.78,7.78,0,0,1,90,80s-22.49,2.58-25.14-6.45C62.94,67,74.74,50.12,85,44.41Z"/><path class="cls-15" d="M98.64,2.68c-2-2.22-9.09-5.82-14.08,2.74-1.09,1.87-2.27,5.19-6.18,6.09-2.76.64-8.91,4.84-4.09,12.3s-4.17,8.31,1.11,11.25c14.14,7.85,18.95-.22,22.82-8.45C104.29,13.66,102.63,7.13,98.64,2.68Z"/><path class="cls-16" d="M92.19,12.87s-14,.62-14.88,6.57c-.38,2.68,1.27,5.69,1.2,7.84-.12,3.59-2.53,5.31.57,6.43,8.07,2.92,17.58-10.2,17.58-10.2L94.58,9.64Z"/><path class="cls-7" d="M106.2,45.6c-1.83-6.29-1.65-15.17-1.85-20.81-.35-9.9-8.42-8.23-12.8-7.8-5.26.53-13.35,4.25-9.63,13.26,3.27,7.92-3,11.91-2.49,17.55C79.94,54,108.06,52,106.2,45.6Z"/><path class="cls-14" d="M116.62,5.09a5.36,5.36,0,0,0-.64,5.3c1.11,2.92-1.5,11.47-3.79,12-3.78.83-6.47-2.65-6.47-2.65l-3.89,7s8.68,4.55,12.92,2.42c1.08-.54,4.42-2,4.17-13.11C118.65,3.82,116.85,4.73,116.62,5.09Z"/><path class="cls-7" d="M95.57,19.83c-.78,1.37-5.46-.67-2.24,3,2.5,2.84,11.11,6.27,11.11,6.27s4.81-3.79,4-8.77C108.43,20.29,98.49,14.69,95.57,19.83Z"/><path class="cls-12" d="M91.49,10.56s.84,4.69-.6,6.75c-.92,1.31,6.62,4.23,6.47,2.46-.19-2.27-1.49-3.66,0-6.22Z"/><path class="cls-17" d="M98.2,4.07c1.34,2.38,3.22,12.66-1.62,13.24-2.18.25-5.76-2.64-6.92-6.82-.48-1.72.51-4.84,2.8-7.06C93.49,2.41,96.67,1.28,98.2,4.07Z"/><path class="cls-15" d="M100,7.85C99.84,9,97.84,4.5,96.55,6.73s-3.87,1-5.42,5.46c-1.06,3-3.2-3.4-3.35-3.89-.66-2.08-.66-2.08,2.25-5.38S100.58,1.89,100,7.85Z"/><path class="cls-18" d="M81.92,30.25c3.27,7.92-3,11.91-2.49,17.55.33,4.07,12.42,4.62,20.26,2.72C80.84,48.87,87.75,37.2,89.54,28.37c1.85-9.08-4.33-9.26-4.43-9.26C81.84,21.13,79.62,24.68,81.92,30.25Z"/><path class="cls-14" d="M64.62,10.05A5.32,5.32,0,0,1,66,15.19c-.68,3.06,3.1,11.15,5.43,11.33,3.87.29,6-3.54,6-3.54l4.84,6.42s-8,5.71-12.46,4.2c-1.15-.39-4.67-1.41-6-12.39C62.44,9.07,64.35,9.72,64.62,10.05Z"/><path class="cls-7" d="M87.54,21.69c1,1.25,1.73,3-1.56,6.16a29.11,29.11,0,0,1-5.93,4.22s-5.3-3.09-5.18-8.13C74.87,23.94,83.93,17,87.54,21.69Z"/></g></g></g></svg>