<svg xmlns="http://www.w3.org/2000/svg" viewBox="0 0 145.37 109.46"><defs><style>.cls-1{isolation:isolate;}.cls-2{fill:#e13d21;}.cls-3{fill:#7c5da4;}.cls-4{fill:#362152;}.cls-5{fill:#c24740;}.cls-6{fill:#ee766a;}.cls-7{fill:#25183b;}.cls-8{fill:#eea198;}.cls-9{fill:#623b8d;}.cls-10,.cls-16{fill:#010101;}.cls-10,.cls-11,.cls-16,.cls-17,.cls-19{mix-blend-mode:overlay;}.cls-10,.cls-11{opacity:0.4;}.cls-11,.cls-17{fill:#fff;}.cls-12{fill:#f5d488;}.cls-13{fill:#ede9d4;}.cls-14{fill:#f4bb4a;}.cls-15{fill:#e3a435;}.cls-16,.cls-17,.cls-19{opacity:0.5;}.cls-18{fill:#e8a49c;}.cls-19{fill:#626161;}.cls-20{fill:#ef7887;}.cls-21{fill:#bf481a;}.cls-22{fill:#8c9c8a;}.cls-23{fill:#afcdab;}.cls-24{fill:#26193e;}.cls-25{fill:#a63617;}</style></defs><g class="cls-1"><g id="Layer_2" data-name="Layer 2"><g id="Capa_1" data-name="Capa 1"><path class="cls-2" d="M57.91,82.75c0,.13,0,.27-.07.42C57.86,83,57.89,82.89,57.91,82.75Z"/><path class="cls-3" d="M17.15,62.09c-.3-.33-.59-.63-.88-.92-.45.44-.88.9-1.3,1.38l.59.72A8,8,0,0,1,17.15,62.09Z"/><path class="cls-4" d="M19.89,58.22a26.43,26.43,0,0,0-2.16,1.62c.67.68,1.38,1.45,2.14,2.31C19.91,60.79,19.91,59.49,19.89,58.22Z"/><path class="cls-3" d="M14.13,64.66l-.43-.53c-.42.56-.82,1.14-1.19,1.74a4,4,0,0,0,.26.32C13.19,65.7,13.65,65.18,14.13,64.66Z"/><path class="cls-4" d="M58.21,79.05c0-.38,0-.77,0-1.16a24.79,24.79,0,0,0-.73-5.14c-.36,2-.8,4.22-1.36,6.5Z"/><path class="cls-4" d="M54,79.49a94.73,94.73,0,0,0,2.06-10.8,26.57,26.57,0,0,0-2-3.58,89.3,89.3,0,0,1-2.37,14.68Z"/><path class="cls-4" d="M26.87,71.49a91.32,91.32,0,0,0,1.31-16.82c-.65.15-1.28.32-1.9.52a91.37,91.37,0,0,1-1,13.93C25.82,69.87,26.34,70.66,26.87,71.49Z"/><path class="cls-4" d="M23.61,66.76a89.35,89.35,0,0,0,.66-10.86A26.69,26.69,0,0,0,21.85,57q.11,3.45-.08,7.35C22.37,65.13,23,65.92,23.61,66.76Z"/><path class="cls-2" d="M11.46,67.75a.3.3,0,0,0,0,.08l.05-.06S11.46,67.76,11.46,67.75Z"/><path class="cls-2" d="M8.91,78.21c0,.46,0,.93,0,1.39,0,.14,0,.26,0,.4,0-.57,0-1.15,0-1.75Z"/><path class="cls-2" d="M18.3,98l-.43-.33a1,1,0,0,1,0,.1q.8.64,1.65,1.23l0-.09C19.12,98.67,18.71,98.36,18.3,98Z"/><path class="cls-5" d="M50.18,96.8l-.13.31a24.58,24.58,0,0,0,2.39-2.5l-.14,0A24,24,0,0,1,50.18,96.8Z"/><path class="cls-5" d="M44.26,100.78c0,.09-.08.18-.13.27.55-.26,1.09-.55,1.62-.85l-.65.15Z"/><path class="cls-5" d="M22.2,100.6a.14.14,0,0,0,0,.06c.47.25,1,.46,1.45.68h0C23.18,101.11,22.69,100.87,22.2,100.6Z"/><path class="cls-4" d="M29.68,76.18a95.4,95.4,0,0,0,2.46-22.05c-.67,0-1.33.08-2,.17A92.31,92.31,0,0,1,28.42,74C28.84,74.7,29.26,75.43,29.68,76.18Z"/><path class="cls-2" d="M56.25,88.31h0c.29-.71.56-1.43.79-2.16h0C56.84,86.83,56.57,87.55,56.25,88.31Z"/><path class="cls-6" d="M9.87,72.06l0-.07a26.5,26.5,0,0,0-.66,3.09l.09.12C9.4,74.19,9.6,73.14,9.87,72.06Z"/><path class="cls-2" d="M54,92.44l.11,0a23.38,23.38,0,0,0,1.22-2h-.08A23,23,0,0,1,54,92.44Z"/><path class="cls-4" d="M47.78,80.42l1.83-.31a88.56,88.56,0,0,0,2.64-17.47,24.83,24.83,0,0,0-2-2A84.13,84.13,0,0,1,47.78,80.42Z"/><path class="cls-4" d="M32.82,82.27a87.11,87.11,0,0,0,4.46-27.91,25.09,25.09,0,0,0-3.15-.26,97.5,97.5,0,0,1-3.05,24.66Q32,80.44,32.82,82.27Z"/><path class="cls-4" d="M40.83,81.87A89.84,89.84,0,0,0,45.17,57c-.66-.35-1.33-.68-2-1a87.59,87.59,0,0,1-4.23,26.33Z"/><path class="cls-4" d="M36.66,83a87.44,87.44,0,0,0,4.49-27.68,18.16,18.16,0,0,0-1.88-.53,88.3,88.3,0,0,1-4.83,28.88Z"/><path class="cls-4" d="M45.64,80.82A82.88,82.88,0,0,0,48.3,59c-.38-.28-.77-.54-1.17-.81a90.17,90.17,0,0,1-4.08,23.21C43.9,81.17,44.76,81,45.64,80.82Z"/><path class="cls-7" d="M47.78,80.42a84.13,84.13,0,0,0,2.52-19.8C49.66,60,49,59.48,48.3,59a82.88,82.88,0,0,1-2.66,21.86Z"/><path class="cls-7" d="M38.91,82.35A87.59,87.59,0,0,0,43.14,56c-.65-.27-1.31-.52-2-.73A87.44,87.44,0,0,1,36.66,83Z"/><path class="cls-7" d="M33.59,83.92l.85-.28a88.3,88.3,0,0,0,4.83-28.88c-.66-.16-1.32-.3-2-.4a87.11,87.11,0,0,1-4.46,27.91C33.08,82.81,33.34,83.36,33.59,83.92Z"/><path class="cls-7" d="M43.05,81.36a90.17,90.17,0,0,0,4.08-23.21,22.44,22.44,0,0,0-2-1.16,89.84,89.84,0,0,1-4.34,24.88Z"/><path class="cls-7" d="M28.42,74a92.31,92.31,0,0,0,1.74-19.7c-.67.09-1.33.23-2,.37a91.32,91.32,0,0,1-1.31,16.82C27.39,72.29,27.91,73.13,28.42,74Z"/><path class="cls-7" d="M25.3,69.12a91.37,91.37,0,0,0,1-13.93c-.68.21-1.35.45-2,.71a89.35,89.35,0,0,1-.66,10.86C24.16,67.51,24.73,68.29,25.3,69.12Z"/><path class="cls-7" d="M21.77,64.39q.18-3.9.08-7.35c-.67.36-1.32.76-2,1.18,0,1.27,0,2.57,0,3.93C20.48,62.84,21.11,63.58,21.77,64.39Z"/><path class="cls-7" d="M31.08,78.76A97.5,97.5,0,0,0,34.13,54.1c-.47,0-1,0-1.43,0l-.56.05a95.4,95.4,0,0,1-2.46,22.05C30.15,77,30.62,77.87,31.08,78.76Z"/><path class="cls-5" d="M49.43,97.45l.3-.06.32-.28.13-.31Z"/><path class="cls-7" d="M56.14,79.25c.56-2.28,1-4.45,1.36-6.5a25.6,25.6,0,0,0-1.4-4.06A94.73,94.73,0,0,1,54,79.49Q55.08,79.36,56.14,79.25Z"/><path class="cls-5" d="M41.89,101.82,42,102a23.26,23.26,0,0,0,2.18-.91c0-.09.09-.18.13-.27C43.51,101.15,42.72,101.5,41.89,101.82Z"/><path class="cls-7" d="M51.74,79.79a89.3,89.3,0,0,0,2.37-14.68,26.58,26.58,0,0,0-1.86-2.47,88.56,88.56,0,0,1-2.64,17.47Z"/><path class="cls-3" d="M9.87,72.06c-.27,1.08-.47,2.13-.62,3.14a93,93,0,0,1,8.92,15.43l1.84-1A91.87,91.87,0,0,0,9.87,72.06Z"/><path class="cls-2" d="M19.52,99s0,0,0,0c-.4-.27-.8-.56-1.21-.87C18.71,98.36,19.12,98.67,19.52,99Z"/><path class="cls-3" d="M9.9,85.72a24.56,24.56,0,0,0,3.82,7.7l.12-.08C12.56,90.56,11.23,88,9.9,85.72Z"/><path class="cls-3" d="M16.46,91.64A93.68,93.68,0,0,0,8.94,78.25c0,.6,0,1.18,0,1.75a3.16,3.16,0,0,1,0,.32,94.92,94.92,0,0,1,6.56,11.91Z"/><path class="cls-2" d="M22.2,100.6c.49.27,1,.51,1.48.74l0,0c-.51-.23-1-.5-1.55-.77Z"/><path class="cls-3" d="M14.13,64.66c-.48.52-.94,1-1.36,1.53a90.16,90.16,0,0,1,12.5,20.88l1.55-.66A91.08,91.08,0,0,0,14.13,64.66Z"/><path class="cls-3" d="M21.76,88.71l1.72-.83a90.72,90.72,0,0,0-12-20.11l-.05.06c-.3.61-.57,1.24-.83,1.88A91.05,91.05,0,0,1,21.76,88.71Z"/><path class="cls-3" d="M17.15,62.09a8,8,0,0,0-1.59,1.18A91.41,91.41,0,0,1,28.64,85.68c1-.38,2-.76,3.07-1.14A84.62,84.62,0,0,0,17.15,62.09Z"/><path class="cls-5" d="M40.13,102.45s0,0,0,.07c.62-.17,1.22-.35,1.81-.56l-.06-.14C41.32,102,40.74,102.25,40.13,102.45Z"/><path class="cls-8" d="M38.92,102.83c.41-.09.82-.2,1.22-.31,0,0,0,0,0-.07Z"/><path class="cls-4" d="M31.71,84.54c.61-.21,1.24-.42,1.88-.62-.25-.56-.51-1.11-.77-1.65q-.86-1.83-1.74-3.51c-.46-.89-.93-1.75-1.4-2.58S28.84,74.7,28.42,74c-.51-.87-1-1.71-1.55-2.51s-1.05-1.62-1.57-2.37-1.14-1.61-1.69-2.36-1.24-1.63-1.84-2.37-1.29-1.55-1.9-2.24c-.76-.86-1.47-1.63-2.14-2.31-.5.42-1,.86-1.46,1.33.29.29.58.59.88.92A84.62,84.62,0,0,1,31.71,84.54Z"/><path class="cls-4" d="M23.48,87.88c.58-.27,1.17-.54,1.79-.81a90.16,90.16,0,0,0-12.5-20.88,4,4,0,0,1-.26-.32c-.38.61-.73,1.24-1,1.88,0,0,0,0,0,0A90.72,90.72,0,0,1,23.48,87.88Z"/><path class="cls-4" d="M20,89.61l1.75-.9a91.05,91.05,0,0,0-11.17-19c-.29.75-.55,1.5-.77,2.28l0,.07A91.87,91.87,0,0,1,20,89.61Z"/><path class="cls-8" d="M19.66,99l-.15-.1s0,0,0,0l0,.09h0Z"/><path class="cls-4" d="M16.46,91.64c.54-.33,1.11-.67,1.71-1A93,93,0,0,0,9.25,75.2l-.09-.12a24.93,24.93,0,0,0-.25,3.13l0,0A93.68,93.68,0,0,1,16.46,91.64Z"/><path class="cls-5" d="M22.17,100.54l-.55-.31-.09,0,.69.38a.14.14,0,0,1,0-.06Z"/><path class="cls-8" d="M17.81,97.66l0,0,.15.13a1,1,0,0,0,0-.1Z"/><path class="cls-4" d="M15.51,92.23A94.92,94.92,0,0,0,9,80.32a25.22,25.22,0,0,0,1,5.4c1.33,2.3,2.66,4.84,3.94,7.62C14.35,93,14.9,92.62,15.51,92.23Z"/><path class="cls-4" d="M26.82,86.41l1.82-.73A91.41,91.41,0,0,0,15.56,63.27L15,62.55c-.44.5-.87,1-1.27,1.58l.43.53A91.08,91.08,0,0,1,26.82,86.41Z"/><path class="cls-4" d="M18.3,98c.41.31.81.6,1.21.87l.15.1c7.46-4.08,19.47-8.88,36.59-10.7.32-.76.59-1.48.81-2.17C38.48,88,25.56,93.35,17.81,97.66l.06,0Z"/><path class="cls-4" d="M15,95c.39.44.81.87,1.24,1.29C24.12,91.72,37.67,86,57.62,84.14c.08-.32.16-.64.22-1,0-.15,0-.29.07-.42.1-.57.16-1.15.21-1.74C35.26,83.16,21.21,90.73,15,95Z"/><path class="cls-4" d="M23.72,101.31A98.76,98.76,0,0,1,54,92.44a23,23,0,0,0,1.25-2c-15.33,1.83-26.43,6.09-33.61,9.84l.55.31C22.7,100.81,23.21,101.08,23.72,101.31Z"/><path class="cls-4" d="M40.41,102.44c.61-.2.91-.4,1.48-.62.83-.32,1.62-.67,2.37-1l.84-.43a97.62,97.62,0,0,0-10.44,3.05,24.82,24.82,0,0,0,4.26-.57C39.33,102.71,40,102.57,40.41,102.44Z"/><path class="cls-4" d="M49.43,97.45l.75-.65a24,24,0,0,0,2.12-2.17,98,98,0,0,0-26,7.67,23.21,23.21,0,0,0,3.55.83A100.22,100.22,0,0,1,49.43,97.45Z"/><path class="cls-9" d="M54,79.49l-2.3.3-2.13.32-1.83.31-2.14.4c-.88.17-1.74.35-2.59.54l-2.22.51-1.92.48L36.66,83l-2.22.67-.85.28c-.64.2-1.27.41-1.88.62-1.07.38-2.08.76-3.07,1.14l-1.82.73-1.55.66c-.62.27-1.21.54-1.79.81l-1.72.83-1.75.9-1.84,1c-.6.34-1.17.68-1.71,1l-1,.59c-.61.39-1.16.76-1.67,1.11l-.12.08c.39.53.8,1,1.24,1.55,6.25-4.24,20.3-11.81,43.16-14,.06-.64.08-1.3.09-2l-2.07.2Q55.08,79.35,54,79.49Z"/><path class="cls-9" d="M19.66,99l-.09,0c.63.44,1.29.85,2,1.23l.09,0c7.18-3.75,18.28-8,33.61-9.84h.08c.36-.68.69-1.37,1-2.08h0C39.13,90.13,27.12,94.93,19.66,99Z"/><path class="cls-9" d="M23.72,101.31l0,0h0a22.74,22.74,0,0,0,2.58,1A98,98,0,0,1,52.3,94.63l.14,0a25.08,25.08,0,0,0,1.65-2.19l-.11,0A98.76,98.76,0,0,0,23.72,101.31Z"/><path class="cls-9" d="M29.8,103.13a25.16,25.16,0,0,0,4.62.29l.24,0a97.62,97.62,0,0,1,10.44-3.05l.65-.15a25.27,25.27,0,0,0,4-2.81l-.3.06A100.22,100.22,0,0,0,29.8,103.13Z"/><path class="cls-9" d="M16.2,96.26c.5.5,1,1,1.56,1.42l0,0C25.56,93.35,38.48,88,57.06,86.14h0c.21-.66.38-1.32.53-2C37.67,86,24.12,91.72,16.2,96.26Z"/><path class="cls-10" d="M56.65,79.91A27.25,27.25,0,0,1,55,82.1a24.58,24.58,0,0,1-2.39,2.5l-.32.27a24.34,24.34,0,0,1-4,2.82c-.52.31-1.06.59-1.61.85a23.26,23.26,0,0,1-2.18.91c-.46.16-.93.3-1.4.43l-.14.05s-.13,0-.19.06l-.08,0-.26.06-1,.25a14.09,14.09,0,0,1-4.82.21c-15.9-2.59.22-5.47-3.65-12.3-2.35-4.13-25.48,5.44-21.5-10.42a.37.37,0,0,0,0-.11,0,0,0,0,0,0,0,.25.25,0,0,1,0,.07c-.3.62-.57,1.25-.82,1.89A22.44,22.44,0,0,0,9.86,72,24.27,24.27,0,0,0,9,78.18c0,.46,0,.92,0,1.39,0,.13,0,.26,0,.39s0,.22,0,.33a25,25,0,0,0,4.77,13.1c.39.53.81,1,1.24,1.54s.82.88,1.24,1.3,1,1,1.57,1.42l.14.12c.54.44,1.08.85,1.65,1.24h0c.64.44,1.29.84,2,1.22l.68.39c.47.24,1,.46,1.45.67a23.54,23.54,0,0,0,2.58,1,24.76,24.76,0,0,0,3.55.83,24.32,24.32,0,0,0,4.62.28l.25,0A24.84,24.84,0,0,0,39,102.8l1-.25.27-.07.07,0,.2,0,.14,0c.47-.14.94-.27,1.39-.44a23.39,23.39,0,0,0,2.19-.9c.55-.26,1.08-.55,1.61-.85a24.77,24.77,0,0,0,4-2.82l.31-.27a25.62,25.62,0,0,0,2.39-2.5,25.08,25.08,0,0,0,1.65-2.19c.44-.66.85-1.35,1.23-2s.68-1.37,1-2.07.56-1.43.79-2.17.39-1.32.54-2c.07-.32.15-.64.21-1,0-.14.06-.28.08-.41.09-.58.15-1.16.2-1.74s.09-1.3.1-2c0-.39,0-.77,0-1.16,0-.24,0-.46-.06-.69-.11.23-.21.47-.33.7C57.49,78.57,57.09,79.25,56.65,79.91Z"/><path class="cls-11" d="M43.8,60.67c.94,3.07-6.33.68-14.12,3S16.54,72.3,15.61,69.23s3.49-8.5,11.28-10.86S42.87,57.6,43.8,60.67Z"/><path class="cls-11" d="M23,70.68s1.17-4.83,9.67-5.22c0,0,4.48-.08,5.52,1.39,2,2.88-6.74,0-10.32,4S21.83,72.66,23,70.68Z"/><path class="cls-2" d="M82.21,48.51c0,.14,0,.27-.07.42C82.16,48.79,82.19,48.65,82.21,48.51Z"/><path class="cls-3" d="M41.45,27.85l-.88-.92c-.45.44-.88.9-1.3,1.38l.58.72A8.42,8.42,0,0,1,41.45,27.85Z"/><path class="cls-4" d="M44.19,24A26.32,26.32,0,0,0,42,25.6c.66.68,1.38,1.45,2.14,2.31C44.2,26.56,44.21,25.25,44.19,24Z"/><path class="cls-3" d="M38.43,30.43,38,29.89c-.42.56-.82,1.15-1.19,1.75a4,4,0,0,1,.26.32C37.48,31.46,37.94,30.94,38.43,30.43Z"/><path class="cls-4" d="M82.51,44.82c0-.39,0-.77,0-1.16a25.58,25.58,0,0,0-.73-5.15c-.36,2.06-.8,4.22-1.37,6.5Z"/><path class="cls-4" d="M78.33,45.26a91.31,91.31,0,0,0,2.06-10.8,23.54,23.54,0,0,0-2-3.58A87.52,87.52,0,0,1,76,45.56C76.79,45.45,77.55,45.35,78.33,45.26Z"/><path class="cls-4" d="M51.17,37.25a91.22,91.22,0,0,0,1.31-16.81c-.65.14-1.28.32-1.9.51a92.58,92.58,0,0,1-1,13.93C50.12,35.64,50.64,36.42,51.17,37.25Z"/><path class="cls-4" d="M47.9,32.53a89.64,89.64,0,0,0,.67-10.86,23.17,23.17,0,0,0-2.42,1.13c.06,2.31,0,4.76-.09,7.36C46.66,30.9,47.27,31.68,47.9,32.53Z"/><path class="cls-2" d="M35.75,33.52l0,.08a.18.18,0,0,1,.05-.07Z"/><path class="cls-2" d="M33.21,44c0,.46,0,.92,0,1.39,0,.13,0,.26,0,.39,0-.57,0-1.15,0-1.75Z"/><path class="cls-2" d="M42.6,63.81l-.43-.34a.42.42,0,0,0,0,.1c.53.44,1.08.85,1.65,1.24a.36.36,0,0,1,0-.09C43.41,64.43,43,64.13,42.6,63.81Z"/><path class="cls-5" d="M74.48,62.57c0,.1-.09.2-.14.31a23.63,23.63,0,0,0,2.39-2.51l-.14,0A23.86,23.86,0,0,1,74.48,62.57Z"/><path class="cls-5" d="M68.56,66.54c0,.1-.09.18-.13.28.55-.27,1.08-.55,1.61-.85l-.64.14C69.13,66.26,68.84,66.4,68.56,66.54Z"/><path class="cls-5" d="M46.49,66.37s0,0,0,0c.48.25,1,.47,1.46.68h0C47.48,66.88,47,66.63,46.49,66.37Z"/><path class="cls-4" d="M54,41.94a94.77,94.77,0,0,0,2.45-22c-.66,0-1.32.08-2,.17a92.31,92.31,0,0,1-1.74,19.7C53.14,40.47,53.56,41.19,54,41.94Z"/><path class="cls-2" d="M80.54,54.07h.06c.29-.7.56-1.42.79-2.16h0C81.13,52.59,80.87,53.31,80.54,54.07Z"/><path class="cls-6" d="M34.17,37.82l-.05-.07a24.37,24.37,0,0,0-.66,3.1l.08.11C33.69,40,33.9,38.91,34.17,37.82Z"/><path class="cls-2" d="M78.28,58.2h.1c.44-.67.85-1.34,1.23-2h-.08C79.16,56.83,78.74,57.51,78.28,58.2Z"/><path class="cls-4" d="M72.08,46.18l1.83-.31A87.6,87.6,0,0,0,76.54,28.4a24.64,24.64,0,0,0-1.94-2A84.13,84.13,0,0,1,72.08,46.18Z"/><path class="cls-4" d="M57.12,48a87.45,87.45,0,0,0,4.46-27.92,25.25,25.25,0,0,0-3.15-.25,97.48,97.48,0,0,1-3,24.65C56,45.65,56.54,46.82,57.12,48Z"/><path class="cls-4" d="M65.13,47.64a90.22,90.22,0,0,0,4.34-24.89c-.66-.35-1.34-.67-2-1a88.33,88.33,0,0,1-4.23,26.33C63.83,48,64.48,47.79,65.13,47.64Z"/><path class="cls-4" d="M61,48.74a87.83,87.83,0,0,0,4.49-27.69c-.62-.2-1.25-.38-1.88-.53a88.67,88.67,0,0,1-4.83,28.89C59.46,49.18,60.2,49,61,48.74Z"/><path class="cls-4" d="M69.94,46.58a82.76,82.76,0,0,0,2.65-21.85c-.37-.29-.76-.55-1.16-.81a90.18,90.18,0,0,1-4.08,23.2C68.19,46.93,69.06,46.75,69.94,46.58Z"/><path class="cls-7" d="M72.08,46.18a84.13,84.13,0,0,0,2.52-19.8,24.47,24.47,0,0,0-2-1.65,82.76,82.76,0,0,1-2.65,21.85Z"/><path class="cls-7" d="M63.21,48.12a88.33,88.33,0,0,0,4.23-26.33c-.65-.28-1.31-.52-2-.74A87.83,87.83,0,0,1,61,48.74C61.7,48.53,62.44,48.32,63.21,48.12Z"/><path class="cls-7" d="M57.89,49.68l.85-.27a88.67,88.67,0,0,0,4.83-28.89c-.66-.16-1.32-.3-2-.4A87.45,87.45,0,0,1,57.12,48C57.38,48.58,57.63,49.12,57.89,49.68Z"/><path class="cls-7" d="M67.35,47.12a90.18,90.18,0,0,0,4.08-23.2c-.63-.42-1.29-.81-2-1.17a90.22,90.22,0,0,1-4.34,24.89C65.85,47.46,66.59,47.29,67.35,47.12Z"/><path class="cls-7" d="M52.72,39.76a92.31,92.31,0,0,0,1.74-19.7c-.67.09-1.33.23-2,.38a91.22,91.22,0,0,1-1.31,16.81C51.68,38.05,52.2,38.89,52.72,39.76Z"/><path class="cls-7" d="M49.6,34.88a92.58,92.58,0,0,0,1-13.93q-1,.32-2,.72a89.64,89.64,0,0,1-.67,10.86C48.46,33.27,49,34.05,49.6,34.88Z"/><path class="cls-7" d="M46.06,30.16c.13-2.6.15-5.05.09-7.36-.67.37-1.33.77-2,1.19,0,1.26,0,2.57,0,3.92Q45.09,28.95,46.06,30.16Z"/><path class="cls-7" d="M55.38,44.52a97.48,97.48,0,0,0,3-24.65c-.48,0-1,0-1.43,0l-.57.05a94.77,94.77,0,0,1-2.45,22C54.45,42.77,54.91,43.63,55.38,44.52Z"/><path class="cls-5" d="M73.72,63.21l.31-.06.31-.27c0-.11.09-.21.14-.31Z"/><path class="cls-7" d="M80.43,45c.57-2.28,1-4.44,1.37-6.5a24.56,24.56,0,0,0-1.41-4,91.31,91.31,0,0,1-2.06,10.8C79,45.17,79.72,45.08,80.43,45Z"/><path class="cls-5" d="M66.19,67.59l.06.13c.74-.27,1.47-.57,2.18-.9,0-.1.08-.18.13-.28Q67.44,67.1,66.19,67.59Z"/><path class="cls-7" d="M76,45.56A87.52,87.52,0,0,0,78.4,30.88a23.93,23.93,0,0,0-1.86-2.48,87.6,87.6,0,0,1-2.63,17.47Z"/><path class="cls-3" d="M34.17,37.82c-.27,1.09-.48,2.13-.63,3.14a91.59,91.59,0,0,1,8.92,15.43c.59-.33,1.2-.67,1.85-1A92.53,92.53,0,0,0,34.17,37.82Z"/><path class="cls-2" d="M43.82,64.72s0,0,0,0c-.39-.27-.8-.56-1.2-.86C43,64.13,43.41,64.43,43.82,64.72Z"/><path class="cls-3" d="M34.2,51.48A24.91,24.91,0,0,0,38,59.19l.13-.09C36.85,56.32,35.53,53.79,34.2,51.48Z"/><path class="cls-3" d="M40.76,57.4A95.19,95.19,0,0,0,33.23,44c0,.6,0,1.18,0,1.75l0,.32A96.43,96.43,0,0,1,39.8,58Z"/><path class="cls-2" d="M46.49,66.37c.5.26,1,.51,1.48.73l.05,0c-.51-.24-1-.5-1.55-.78A.14.14,0,0,1,46.49,66.37Z"/><path class="cls-3" d="M38.43,30.43c-.49.51-1,1-1.37,1.53A89.92,89.92,0,0,1,49.57,52.84c.5-.23,1-.45,1.55-.67A91.32,91.32,0,0,0,38.43,30.43Z"/><path class="cls-3" d="M46.06,54.48c.55-.28,1.12-.56,1.71-.83a90.61,90.61,0,0,0-12-20.12.18.18,0,0,0-.05.07c-.31.61-.58,1.24-.83,1.87A92,92,0,0,1,46.06,54.48Z"/><path class="cls-3" d="M41.45,27.85A8.42,8.42,0,0,0,39.85,29,91.59,91.59,0,0,1,52.94,51.44c1-.38,2-.76,3.07-1.13A85,85,0,0,0,41.45,27.85Z"/><path class="cls-5" d="M64.42,68.22a.14.14,0,0,1,0,.06c.61-.17,1.22-.34,1.81-.56l-.06-.13Q65.34,67.92,64.42,68.22Z"/><path class="cls-8" d="M63.22,68.59c.41-.09.82-.2,1.22-.31a.14.14,0,0,0,0-.06C64,68.34,63.63,68.48,63.22,68.59Z"/><path class="cls-4" d="M56,50.31l1.88-.63c-.26-.56-.51-1.1-.77-1.64-.58-1.22-1.16-2.39-1.74-3.52-.47-.89-.93-1.75-1.4-2.58s-.84-1.47-1.26-2.18c-.52-.87-1-1.71-1.55-2.51s-1.05-1.61-1.57-2.37-1.14-1.61-1.7-2.35-1.24-1.63-1.84-2.37-1.28-1.56-1.89-2.25c-.76-.86-1.48-1.63-2.14-2.31-.51.42-1,.87-1.46,1.33l.88.92A85,85,0,0,1,56,50.31Z"/><path class="cls-4" d="M47.77,53.65l1.8-.81A89.92,89.92,0,0,0,37.06,32a4,4,0,0,0-.26-.32c-.37.61-.73,1.23-1,1.88h0A90.61,90.61,0,0,1,47.77,53.65Z"/><path class="cls-4" d="M44.31,55.38c.56-.3,1.14-.6,1.75-.9a92,92,0,0,0-11.17-19c-.29.75-.55,1.51-.77,2.28l.05.07A92.53,92.53,0,0,1,44.31,55.38Z"/><path class="cls-8" d="M44,64.77l-.15-.1s0,0,0,0a.36.36,0,0,0,0,.09h0Z"/><path class="cls-4" d="M40.76,57.4c.53-.33,1.1-.66,1.7-1A91.59,91.59,0,0,0,33.54,41l-.08-.11A24.78,24.78,0,0,0,33.21,44l0,0A95.19,95.19,0,0,1,40.76,57.4Z"/><path class="cls-5" d="M46.47,66.3,45.91,66l-.08.05.68.38s0,0,0,0A.14.14,0,0,0,46.47,66.3Z"/><path class="cls-8" d="M42.1,63.42l0,0,.15.12a.42.42,0,0,1,0-.1Z"/><path class="cls-4" d="M39.8,58a96.43,96.43,0,0,0-6.55-11.92,24.51,24.51,0,0,0,1,5.4c1.33,2.31,2.65,4.84,3.94,7.62C38.65,58.75,39.19,58.38,39.8,58Z"/><path class="cls-4" d="M51.12,52.17l1.82-.73A91.59,91.59,0,0,0,39.85,29l-.58-.72c-.45.51-.87,1-1.28,1.58l.44.54A91.32,91.32,0,0,1,51.12,52.17Z"/><path class="cls-4" d="M42.6,63.81c.4.3.81.59,1.2.86l.15.1c7.47-4.08,19.48-8.88,36.59-10.7.33-.76.59-1.48.82-2.17C62.77,53.79,49.85,59.12,42.1,63.42l.07,0Z"/><path class="cls-4" d="M39.25,60.73c.4.45.82.87,1.25,1.3C48.42,57.49,62,51.77,81.92,49.9c.07-.32.15-.64.22-1,0-.15,0-.28.07-.42.09-.57.15-1.15.2-1.73C59.56,48.92,45.5,56.49,39.25,60.73Z"/><path class="cls-4" d="M48,67.08A98.45,98.45,0,0,1,78.28,58.2c.46-.69.88-1.37,1.25-2.05C64.19,58,53.09,62.25,45.91,66l.56.31C47,66.58,47.51,66.84,48,67.08Z"/><path class="cls-4" d="M64.71,68.21c.61-.2.91-.4,1.48-.62q1.25-.5,2.37-1c.28-.14.57-.28.84-.43a101,101,0,0,0-10.44,3,23.88,23.88,0,0,0,4.26-.57C63.63,68.48,64.31,68.33,64.71,68.21Z"/><path class="cls-4" d="M73.72,63.21l.76-.64a23.86,23.86,0,0,0,2.11-2.18,98,98,0,0,0-26.05,7.68,26.32,26.32,0,0,0,3.56.83A100.05,100.05,0,0,1,73.72,63.21Z"/><path class="cls-9" d="M78.33,45.26c-.78.09-1.54.19-2.3.3l-2.12.31-1.83.31-2.14.4c-.88.17-1.75.35-2.59.54s-1.5.34-2.22.52-1.3.31-1.92.48c-.77.2-1.51.41-2.25.62s-1.5.44-2.22.67l-.85.27L56,50.31c-1.07.37-2.08.75-3.07,1.13l-1.82.73c-.53.22-1,.44-1.55.67l-1.8.81c-.59.27-1.16.55-1.71.83s-1.19.6-1.75.9-1.26.68-1.85,1-1.17.68-1.7,1l-1,.6c-.61.38-1.15.75-1.66,1.1l-.13.09c.4.52.81,1,1.24,1.54,6.25-4.24,20.31-11.81,43.16-13.95.07-.65.09-1.3.1-2L80.43,45C79.72,45.08,79,45.17,78.33,45.26Z"/><path class="cls-9" d="M44,64.77l-.08,0a23,23,0,0,0,2,1.22l.08-.05c7.18-3.74,18.28-8,33.62-9.84h.08c.36-.67.69-1.37,1-2.08h-.06C63.43,55.89,51.42,60.69,44,64.77Z"/><path class="cls-9" d="M48,67.08l-.05,0h0a22.64,22.64,0,0,0,2.57,1,98,98,0,0,1,26.05-7.68l.14,0a24.94,24.94,0,0,0,1.65-2.18h-.1A98.45,98.45,0,0,0,48,67.08Z"/><path class="cls-9" d="M54.1,68.9a24.26,24.26,0,0,0,4.61.28l.25,0a101,101,0,0,1,10.44-3L70,66a24.77,24.77,0,0,0,4-2.82l-.31.06A100.05,100.05,0,0,0,54.1,68.9Z"/><path class="cls-9" d="M40.5,62c.5.49,1,1,1.56,1.42l0,0c7.75-4.3,20.67-9.63,39.26-11.52h0c.2-.65.38-1.32.53-2C62,51.77,48.42,57.49,40.5,62Z"/><path class="cls-10" d="M80.94,45.67a23.66,23.66,0,0,1-1.65,2.19,24.63,24.63,0,0,1-2.39,2.51l-.31.27a24.34,24.34,0,0,1-4,2.82c-.53.3-1.06.58-1.61.85-.71.33-1.44.63-2.18.9-.46.17-.93.3-1.4.43l-.14,0-.19.06-.08,0-.26.07-1,.24a13.84,13.84,0,0,1-4.82.21c-15.91-2.58.22-5.46-3.65-12.29C55,39.87,31.83,49.43,35.81,33.58c0,0,0-.08,0-.12v0a.3.3,0,0,0,0,.08c-.3.61-.57,1.24-.83,1.88s-.55,1.5-.77,2.28a26.5,26.5,0,0,0-.66,3.09,24.93,24.93,0,0,0-.25,3.13c0,.46,0,.92,0,1.39,0,.14,0,.26,0,.39l0,.33a24.92,24.92,0,0,0,4.77,13.1c.39.53.8,1.05,1.24,1.54s.81.88,1.24,1.3,1,1,1.56,1.42l.15.13q.8.65,1.65,1.23h0a22.07,22.07,0,0,0,2,1.22c.23.13.45.27.69.39.47.25,1,.46,1.45.68a22.74,22.74,0,0,0,2.58,1,23.21,23.21,0,0,0,3.55.83,25.16,25.16,0,0,0,4.62.29l.24,0a25.85,25.85,0,0,0,4.26-.57l1-.25.27-.07.07,0,.19,0,.14,0c.47-.13,1-.27,1.4-.43a23.26,23.26,0,0,0,2.18-.91c.55-.26,1.09-.55,1.62-.85a24.69,24.69,0,0,0,4-2.82c.11-.08.21-.18.32-.27a24.58,24.58,0,0,0,2.39-2.5,25.08,25.08,0,0,0,1.65-2.19,23.38,23.38,0,0,0,1.22-2c.36-.68.69-1.37,1-2.08s.56-1.43.79-2.17.38-1.32.54-2c.07-.32.15-.65.21-1,0-.14,0-.28.07-.41.1-.57.16-1.15.21-1.74s.09-1.3.09-2c0-.38,0-.77,0-1.16,0-.23,0-.46-.06-.69-.11.23-.21.48-.33.7Q81.6,44.68,80.94,45.67Z"/><path class="cls-11" d="M68.1,26.43c.93,3.08-6.33.68-14.12,3S40.84,38.06,39.91,35,43.4,26.5,51.18,24.13,67.16,23.36,68.1,26.43Z"/><path class="cls-11" d="M47.29,36.44s1.16-4.83,9.67-5.21c0,0,4.48-.08,5.52,1.39,2,2.87-6.75,0-10.32,4S46.12,38.42,47.29,36.44Z"/><path class="cls-2" d="M28.92,92.78a1.84,1.84,0,0,0-.05.25A2.21,2.21,0,0,1,28.92,92.78Z"/><path class="cls-12" d="M4.87,80.6l-.51-.55c-.27.27-.53.54-.77.82l.34.42A4.83,4.83,0,0,1,4.87,80.6Z"/><path class="cls-13" d="M6.49,78.32a13.11,13.11,0,0,0-1.27,1c.39.4.81.86,1.26,1.36C6.5,79.84,6.5,79.06,6.49,78.32Z"/><path class="cls-12" d="M3.09,82.12l-.25-.32a11.67,11.67,0,0,0-.7,1l.15.19C2.53,82.73,2.81,82.42,3.09,82.12Z"/><path class="cls-13" d="M29.09,90.6c0-.23,0-.45,0-.68a14.47,14.47,0,0,0-.43-3c-.21,1.22-.47,2.49-.8,3.84C28.27,90.67,28.68,90.64,29.09,90.6Z"/><path class="cls-13" d="M26.63,90.86a54.17,54.17,0,0,0,1.21-6.36,14.51,14.51,0,0,0-1.17-2.12A52.34,52.34,0,0,1,25.27,91Z"/><path class="cls-13" d="M10.61,86.14a54.38,54.38,0,0,0,.77-9.92c-.38.09-.76.19-1.12.31a54.29,54.29,0,0,1-.58,8.22C10,85.19,10.3,85.65,10.61,86.14Z"/><path class="cls-13" d="M8.68,83.35A50.48,50.48,0,0,0,9.07,77a15.3,15.3,0,0,0-1.42.67c0,1.36,0,2.8-.05,4.34C8,82.39,8.31,82.86,8.68,83.35Z"/><path class="cls-2" d="M1.51,83.94a.17.17,0,0,1,0,0l0,0Z"/><path class="cls-12" d="M0,90.11c0,.27,0,.54,0,.82a1.64,1.64,0,0,1,0,.23c0-.34,0-.68,0-1Z"/><path class="cls-12" d="M5.55,101.8l-.25-.2a.14.14,0,0,1,0,.06c.32.26.64.5,1,.73v0C6,102.17,5.79,102,5.55,101.8Z"/><path class="cls-12" d="M24.35,101.07a1.42,1.42,0,0,1-.08.18,15.19,15.19,0,0,0,1.42-1.47H25.6A15,15,0,0,1,24.35,101.07Z"/><path class="cls-12" d="M20.86,103.41c0,.06-.05.11-.07.16.32-.15.64-.32.95-.49l-.38.08C21.2,103.25,21,103.33,20.86,103.41Z"/><path class="cls-12" d="M7.85,103.31s0,0,0,0l.86.4h0C8.43,103.61,8.14,103.47,7.85,103.31Z"/><path class="cls-13" d="M12.27,88.91a56.09,56.09,0,0,0,1.44-13c-.39,0-.78,0-1.16.1a54.8,54.8,0,0,1-1,11.62C11.77,88,12,88.46,12.27,88.91Z"/><path class="cls-12" d="M27.93,96.06h0c.18-.42.33-.85.47-1.28h0A13.65,13.65,0,0,1,27.93,96.06Z"/><path class="cls-12" d="M.58,86.48s0,0,0,0a15.47,15.47,0,0,0-.39,1.82.18.18,0,0,1,0,.07C.3,87.73.42,87.12.58,86.48Z"/><path class="cls-12" d="M26.59,98.49h.07a11.9,11.9,0,0,0,.72-1.2h-.05A11.13,11.13,0,0,1,26.59,98.49Z"/><path class="cls-13" d="M22.94,91.41,24,91.22a52,52,0,0,0,1.55-10.3,14.33,14.33,0,0,0-1.15-1.19A49.11,49.11,0,0,1,22.94,91.41Z"/><path class="cls-13" d="M14.12,92.5A51.58,51.58,0,0,0,16.74,76a14,14,0,0,0-1.85-.15,57.35,57.35,0,0,1-1.8,14.54C13.44,91.09,13.78,91.78,14.12,92.5Z"/><path class="cls-13" d="M18.84,92.27A53.14,53.14,0,0,0,21.4,77.59,13.17,13.17,0,0,0,20.2,77a51.69,51.69,0,0,1-2.49,15.53Z"/><path class="cls-13" d="M16.38,92.91A51.55,51.55,0,0,0,19,76.59c-.37-.12-.74-.23-1.11-.32a52.13,52.13,0,0,1-2.85,17Z"/><path class="cls-13" d="M21.68,91.65a49,49,0,0,0,1.56-12.89c-.22-.17-.45-.33-.68-.48A53.36,53.36,0,0,1,20.15,92Z"/><path class="cls-14" d="M22.94,91.41a49.11,49.11,0,0,0,1.48-11.68,12.16,12.16,0,0,0-1.18-1,49,49,0,0,1-1.56,12.89Q22.3,91.52,22.94,91.41Z"/><path class="cls-14" d="M17.71,92.55A51.69,51.69,0,0,0,20.2,77c-.38-.16-.77-.3-1.17-.43a51.55,51.55,0,0,1-2.65,16.32Z"/><path class="cls-14" d="M14.57,93.47l.5-.16a52.13,52.13,0,0,0,2.85-17c-.39-.09-.78-.17-1.18-.23A51.58,51.58,0,0,1,14.12,92.5Z"/><path class="cls-14" d="M20.15,92a53.36,53.36,0,0,0,2.41-13.68c-.38-.25-.76-.48-1.16-.69a53.14,53.14,0,0,1-2.56,14.68Z"/><path class="cls-14" d="M11.52,87.62a54.8,54.8,0,0,0,1-11.62c-.4.06-.78.14-1.17.22a54.38,54.38,0,0,1-.77,9.92C10.91,86.61,11.22,87.11,11.52,87.62Z"/><path class="cls-14" d="M9.68,84.75a54.29,54.29,0,0,0,.58-8.22A12,12,0,0,0,9.07,77a50.48,50.48,0,0,1-.39,6.4C9,83.79,9.34,84.25,9.68,84.75Z"/><path class="cls-14" d="M7.6,82c.07-1.54.09-3,.05-4.34-.4.22-.79.45-1.16.7,0,.74,0,1.52,0,2.31C6.84,81,7.21,81.48,7.6,82Z"/><path class="cls-14" d="M13.09,90.43a57.35,57.35,0,0,0,1.8-14.54c-.28,0-.56,0-.84,0-.12,0-.22,0-.34,0a56.09,56.09,0,0,1-1.44,13C12.54,89.4,12.82,89.9,13.09,90.43Z"/><path class="cls-12" d="M23.91,101.45l.18,0,.18-.16a1.42,1.42,0,0,0,.08-.18Z"/><path class="cls-14" d="M27.87,90.72c.33-1.35.59-2.62.8-3.84a14.89,14.89,0,0,0-.83-2.38,54.17,54.17,0,0,1-1.21,6.36Z"/><path class="cls-12" d="M19.47,104l0,.08q.66-.24,1.29-.54s.05-.1.07-.16C20.42,103.63,20,103.84,19.47,104Z"/><path class="cls-14" d="M25.27,91a52.34,52.34,0,0,0,1.4-8.66,14.29,14.29,0,0,0-1.1-1.46A52,52,0,0,1,24,91.22Z"/><path class="cls-12" d="M.58,86.48c-.16.64-.28,1.25-.37,1.85a54,54,0,0,1,5.27,9.1q.51-.3,1.08-.6A54,54,0,0,0,.58,86.48Z"/><path class="cls-12" d="M6.28,102.34l0,0-.71-.51C5.79,102,6,102.17,6.28,102.34Z"/><path class="cls-12" d="M.6,94.53a14.56,14.56,0,0,0,2.25,4.55l.08,0Q1.78,96.57.6,94.53Z"/><path class="cls-12" d="M4.47,98A55.1,55.1,0,0,0,0,90.13c0,.35,0,.69,0,1a1.23,1.23,0,0,1,0,.19,58.38,58.38,0,0,1,3.87,7Z"/><path class="cls-12" d="M7.85,103.31c.29.16.58.3.87.43h0c-.3-.14-.6-.29-.91-.46C7.84,103.28,7.85,103.3,7.85,103.31Z"/><path class="cls-12" d="M3.09,82.12c-.28.3-.56.61-.8.9A53,53,0,0,1,9.66,95.33l.92-.39A54,54,0,0,0,3.09,82.12Z"/><path class="cls-12" d="M7.6,96.3l1-.49A52.89,52.89,0,0,0,1.52,84l0,0c-.17.36-.33.73-.48,1.1A54.39,54.39,0,0,1,7.6,96.3Z"/><path class="cls-12" d="M4.87,80.6a4.83,4.83,0,0,0-.94.69,54,54,0,0,1,7.72,13.22c.58-.23,1.18-.45,1.82-.67A49.71,49.71,0,0,0,4.87,80.6Z"/><path class="cls-12" d="M18.43,104.4v0c.36-.1.72-.2,1.07-.33l0-.08Z"/><path class="cls-8" d="M17.71,104.62c.25-.05.49-.12.72-.18v0Z"/><path class="cls-15" d="M13.47,93.84l1.1-.37-.45-1c-.34-.72-.68-1.41-1-2.07s-.55-1-.82-1.52-.5-.87-.75-1.29-.61-1-.91-1.48-.62-1-.93-1.39-.67-1-1-1.4S8,82.39,7.6,82,6.84,81,6.48,80.63s-.87-1-1.26-1.36c-.3.25-.59.51-.86.78l.51.55A49.71,49.71,0,0,1,13.47,93.84Z"/><path class="cls-15" d="M8.61,95.81l1.05-.48A53,53,0,0,0,2.29,83l-.15-.19q-.33.54-.63,1.11h0A52.89,52.89,0,0,1,8.61,95.81Z"/><path class="cls-15" d="M6.56,96.83c.33-.18.68-.35,1-.53A54.39,54.39,0,0,0,1,85.09c-.17.44-.33.89-.46,1.35,0,0,0,0,0,0A54,54,0,0,1,6.56,96.83Z"/><path class="cls-12" d="M6.35,102.37l-.09-.06,0,0v0h0Z"/><path class="cls-15" d="M4.47,98c.32-.19.65-.39,1-.59a54,54,0,0,0-5.27-9.1.18.18,0,0,0,0-.07A14,14,0,0,0,0,90.11v0A55.1,55.1,0,0,1,4.47,98Z"/><path class="cls-12" d="M7.84,103.27l-.33-.18,0,0,.4.23s0,0,0,0S7.84,103.28,7.84,103.27Z"/><path class="cls-12" d="M5.26,101.58s0,0,0,0l.08.07a.14.14,0,0,0,0-.06Z"/><path class="cls-15" d="M3.91,98.37a58.38,58.38,0,0,0-3.87-7A14.5,14.5,0,0,0,.6,94.53q1.17,2,2.33,4.5C3.22,98.82,3.55,98.6,3.91,98.37Z"/><path class="cls-15" d="M10.58,94.94l1.07-.43A54,54,0,0,0,3.93,81.29l-.34-.42c-.26.3-.52.61-.75.93l.25.32A54,54,0,0,1,10.58,94.94Z"/><path class="cls-12" d="M5.55,101.8l.71.51.09.06a57.58,57.58,0,0,1,21.58-6.31,13.65,13.65,0,0,0,.48-1.28c-11,1.12-18.58,4.26-23.15,6.8l0,0Z"/><path class="cls-12" d="M3.58,100c.23.26.48.51.73.76C9,98.08,17,94.71,28.74,93.6c.05-.19.09-.38.13-.57a1.84,1.84,0,0,1,.05-.25c0-.33.09-.68.12-1C15.56,93,7.27,97.49,3.58,100Z"/><path class="cls-12" d="M8.75,103.73a58.36,58.36,0,0,1,17.84-5.24,11.13,11.13,0,0,0,.74-1.2,57.5,57.5,0,0,0-19.82,5.8l.33.18C8.15,103.44,8.45,103.59,8.75,103.73Z"/><path class="cls-12" d="M18.59,104.4c.36-.12.54-.24.88-.37.49-.19,1-.4,1.39-.62.17-.08.34-.16.5-.25A60.62,60.62,0,0,0,15.2,105a14.73,14.73,0,0,0,2.51-.34C18,104.55,18.36,104.47,18.59,104.4Z"/><path class="cls-12" d="M23.91,101.45l.44-.38a15,15,0,0,0,1.25-1.28,57.82,57.82,0,0,0-15.36,4.52,12.44,12.44,0,0,0,2.09.49A58.88,58.88,0,0,1,23.91,101.45Z"/><path class="cls-15" d="M26.63,90.86,25.27,91,24,91.22l-1.08.19q-.64.11-1.26.24L20.15,92l-1.31.31-1.13.28-1.33.36-1.31.4-.5.16-1.1.37c-.64.22-1.24.44-1.82.67l-1.07.43-.92.39-1.05.48-1,.49c-.36.18-.71.35-1,.53s-.74.4-1.08.6-.69.4-1,.59l-.56.35c-.36.23-.69.45-1,.66l-.08,0c.23.31.47.61.73.91,3.69-2.5,12-7,25.46-8.23,0-.38,0-.77.05-1.16-.41,0-.82.07-1.22.12Z"/><path class="cls-15" d="M6.35,102.37l0,0c.38.26.76.5,1.16.72l0,0a57.5,57.5,0,0,1,19.82-5.8h.05c.21-.4.41-.81.58-1.22h0A57.58,57.58,0,0,0,6.35,102.37Z"/><path class="cls-15" d="M8.75,103.73h0a15.28,15.28,0,0,0,1.52.56A57.82,57.82,0,0,1,25.6,99.79h.09a15.68,15.68,0,0,0,1-1.3h-.07A58.36,58.36,0,0,0,8.75,103.73Z"/><path class="cls-15" d="M12.33,104.8a14.52,14.52,0,0,0,2.73.17h.14a60.62,60.62,0,0,1,6.16-1.8l.38-.08a14.48,14.48,0,0,0,2.35-1.67l-.18,0A58.88,58.88,0,0,0,12.33,104.8Z"/><path class="cls-15" d="M4.31,100.75q.45.44.93.84s0,0,0,0C9.83,99,17.45,95.9,28.41,94.78h0c.12-.39.22-.78.31-1.18C17,94.71,9,98.08,4.31,100.75Z"/><path class="cls-16" d="M3.9,90.75c1.61-5.48-1-6.82-2.36-6.82,0,0,0-.05,0-.07s0,0,0,0a.08.08,0,0,1,0,0Q1.25,84.46,1,85a12.45,12.45,0,0,0-.46,1.34A14.46,14.46,0,0,0,0,90c0,.28,0,.55,0,.82a1.79,1.79,0,0,1,0,.23c0,.07,0,.13,0,.2A14.57,14.57,0,0,0,2.86,99a10.77,10.77,0,0,0,.73.91c.23.27.48.52.73.77s.61.57.92.84a.31.31,0,0,1,.09.07c.32.25.64.5,1,.73h0a12.48,12.48,0,0,0,1.16.72c.13.08.26.16.4.23s.57.27.86.4a13.18,13.18,0,0,0,1.52.57,14.44,14.44,0,0,0,2.09.49,15.41,15.41,0,0,0,2.73.17h.14a14.73,14.73,0,0,0,2.51-.34c.16,0,.37-.09.57-.14l.15,0,0,0,.11,0,.08,0,.83-.25q.66-.24,1.29-.54c.32-.15.63-.32.95-.5a14.25,14.25,0,0,0,2.35-1.66l.18-.16a14,14,0,0,0,1.41-1.48,13.68,13.68,0,0,0,1-1.29q.39-.58.72-1.2c.21-.4.4-.81.58-1.23s.33-.84.47-1.27.22-.78.31-1.18c0-.19.09-.38.13-.58a2,2,0,0,0,0-.24c.06-.34.09-.68.13-1s.05-.77.05-1.16c0-.23,0-.45,0-.69s0-.26,0-.4A71,71,0,0,0,17.36,91.6C9.27,93.77,1.47,99,3.9,90.75Z"/><path class="cls-17" d="M25.23,86.21c-.81,1.42-2.47-2.1-6.07-4.14s-7.77-1.84-7-3.26,4.36-1.69,8,.36S26,84.79,25.23,86.21Z"/><path class="cls-2" d="M131.45,76.84c0,.18-.07.36-.1.54C131.38,77.2,131.42,77,131.45,76.84Z"/><path class="cls-12" d="M78.6,50.06l-1.13-1.2c-.59.58-1.15,1.17-1.69,1.79l.75.93A10.78,10.78,0,0,1,78.6,50.06Z"/><path class="cls-13" d="M82.15,45.05a31.82,31.82,0,0,0-2.8,2.09c.86.88,1.79,1.88,2.78,3C82.17,48.38,82.18,46.69,82.15,45.05Z"/><path class="cls-12" d="M74.69,53.4l-.57-.7c-.54.73-1.06,1.49-1.54,2.27l.34.41C73.46,54.74,74.06,54.06,74.69,53.4Z"/><path class="cls-13" d="M131.83,72.05c0-.5,0-1,0-1.5a31.93,31.93,0,0,0-.95-6.68c-.46,2.67-1,5.48-1.76,8.43Z"/><path class="cls-13" d="M126.42,72.62a120.24,120.24,0,0,0,2.67-14A31.26,31.26,0,0,0,126.51,54a115.46,115.46,0,0,1-3.07,19C124.42,72.87,125.41,72.74,126.42,72.62Z"/><path class="cls-13" d="M91.2,62.24a118.29,118.29,0,0,0,1.7-21.8c-.84.19-1.66.42-2.47.67a116.85,116.85,0,0,1-1.27,18.06C89.84,60.15,90.52,61.17,91.2,62.24Z"/><path class="cls-13" d="M87,56.12A115.12,115.12,0,0,0,87.83,42a32,32,0,0,0-3.13,1.48c.08,3,0,6.16-.11,9.52C85.36,54,86.15,55,87,56.12Z"/><path class="cls-2" d="M71.22,57.4l0,.1.06-.08S71.22,57.41,71.22,57.4Z"/><path class="cls-12" d="M67.92,71c0,.6,0,1.2,0,1.81,0,.17,0,.33,0,.5,0-.73,0-1.48,0-2.26Z"/><path class="cls-12" d="M80.09,96.67l-.56-.43a.61.61,0,0,1,0,.12c.69.57,1.41,1.1,2.14,1.61,0,0,0-.08,0-.12C81.15,97.48,80.62,97.08,80.09,96.67Z"/><path class="cls-12" d="M121.42,95.06c-.06.14-.12.27-.17.4a33.9,33.9,0,0,0,3.1-3.24l-.19,0A31.33,31.33,0,0,1,121.42,95.06Z"/><path class="cls-12" d="M113.74,100.22c0,.11-.1.23-.16.35.71-.34,1.41-.71,2.09-1.1l-.83.19Z"/><path class="cls-12" d="M85.14,100l0,.07c.61.32,1.25.6,1.88.88h0C86.42,100.65,85.78,100.33,85.14,100Z"/><path class="cls-13" d="M94.85,68.32A124.22,124.22,0,0,0,98,39.74c-.86,0-1.72.1-2.56.22A119.79,119.79,0,0,1,93.21,65.5C93.76,66.41,94.31,67.35,94.85,68.32Z"/><path class="cls-12" d="M129.28,84.05h.07c.39-.92.73-1.85,1-2.81h0C130.05,82.13,129.7,83.07,129.28,84.05Z"/><path class="cls-12" d="M69.16,63l-.06-.09a31.52,31.52,0,0,0-.85,4l.1.14C68.55,65.75,68.81,64.39,69.16,63Z"/><path class="cls-12" d="M126.35,89.4l.13,0c.57-.85,1.1-1.74,1.59-2.65H128C127.49,87.62,127,88.51,126.35,89.4Z"/><path class="cls-13" d="M118.31,73.82l2.37-.4a112.94,112.94,0,0,0,3.41-22.65,31.18,31.18,0,0,0-2.52-2.62A108.63,108.63,0,0,1,118.31,73.82Z"/><path class="cls-13" d="M98.92,76.23c5-15.59,5.93-28.07,5.78-36.19a34.52,34.52,0,0,0-4.09-.34,126.23,126.23,0,0,1-4,32Q97.8,73.86,98.92,76.23Z"/><path class="cls-13" d="M109.29,75.7a116.23,116.23,0,0,0,5.63-32.26c-.85-.45-1.73-.87-2.63-1.25a114,114,0,0,1-5.48,34.14C107.62,76.11,108.46,75.91,109.29,75.7Z"/><path class="cls-13" d="M103.9,77.13c4.91-15.39,5.92-27.75,5.81-35.89-.8-.26-1.61-.49-2.44-.69.14,8.52-1,21.38-6.25,37.45Z"/><path class="cls-13" d="M115.54,74.34A107.8,107.8,0,0,0,119,46c-.49-.37-1-.71-1.51-1A117,117,0,0,1,112.17,75C113.27,74.8,114.4,74.56,115.54,74.34Z"/><path class="cls-14" d="M118.31,73.82a108.63,108.63,0,0,0,3.26-25.67A31.29,31.29,0,0,0,119,46a107.8,107.8,0,0,1-3.44,28.33Z"/><path class="cls-14" d="M106.81,76.33a114,114,0,0,0,5.48-34.14c-.84-.35-1.7-.67-2.58-.95.11,8.14-.9,20.5-5.81,35.89C104.85,76.86,105.82,76.59,106.81,76.33Z"/><path class="cls-14" d="M99.91,78.36,101,78c5.29-16.07,6.39-28.93,6.25-37.45-.85-.2-1.71-.38-2.57-.51.15,8.12-.82,20.6-5.78,36.19C99.25,76.93,99.59,77.63,99.91,78.36Z"/><path class="cls-14" d="M112.17,75A117,117,0,0,0,117.47,45a29.56,29.56,0,0,0-2.55-1.52,116.23,116.23,0,0,1-5.63,32.26C110.24,75.48,111.2,75.25,112.17,75Z"/><path class="cls-14" d="M93.21,65.5A119.79,119.79,0,0,0,95.47,40c-.87.12-1.73.29-2.57.48a118.29,118.29,0,0,1-1.7,21.8C91.87,63.28,92.54,64.37,93.21,65.5Z"/><path class="cls-14" d="M89.16,59.17a116.85,116.85,0,0,0,1.27-18.06c-.88.27-1.75.58-2.6.93A115.12,115.12,0,0,1,87,56.12C87.69,57.08,88.42,58.1,89.16,59.17Z"/><path class="cls-14" d="M84.59,53c.16-3.36.19-6.54.11-9.52-.88.47-1.72,1-2.55,1.53,0,1.64,0,3.33,0,5.08Q83.32,51.48,84.59,53Z"/><path class="cls-14" d="M96.66,71.67a126.23,126.23,0,0,0,4-32c-.61,0-1.23-.05-1.85,0-.24,0-.49,0-.73.07a124.22,124.22,0,0,1-3.18,28.58C95.45,69.4,96.06,70.51,96.66,71.67Z"/><path class="cls-12" d="M120.44,95.9l.4-.08.41-.36c0-.13.11-.26.17-.4Z"/><path class="cls-14" d="M129.14,72.3c.73-3,1.3-5.76,1.76-8.43a31.91,31.91,0,0,0-1.81-5.25,120.24,120.24,0,0,1-2.67,14Z"/><path class="cls-12" d="M110.67,101.57c0,.06,0,.12.08.17a28.05,28.05,0,0,0,2.83-1.17c.06-.12.11-.24.16-.35C112.77,100.69,111.75,101.15,110.67,101.57Z"/><path class="cls-14" d="M123.44,73a115.46,115.46,0,0,0,3.07-19,31.71,31.71,0,0,0-2.42-3.21,112.94,112.94,0,0,1-3.41,22.65Z"/><path class="cls-12" d="M69.16,63c-.35,1.41-.61,2.77-.81,4.07a119.85,119.85,0,0,1,11.57,20c.75-.43,1.55-.87,2.39-1.32A118.93,118.93,0,0,0,69.16,63Z"/><path class="cls-12" d="M81.68,97.85a.17.17,0,0,1,0,0c-.52-.36-1-.74-1.57-1.13C80.62,97.08,81.15,97.48,81.68,97.85Z"/><path class="cls-12" d="M69.21,80.69a31.85,31.85,0,0,0,4.94,10l.16-.11C72.64,87,70.92,83.68,69.21,80.69Z"/><path class="cls-12" d="M77.71,88.37A122.33,122.33,0,0,0,68,71c0,.78,0,1.53,0,2.26,0,.14,0,.28,0,.43a124.16,124.16,0,0,1,8.5,15.43C76.86,88.88,77.28,88.63,77.71,88.37Z"/><path class="cls-12" d="M85.14,100c.64.34,1.28.66,1.92,1l.06,0c-.66-.31-1.33-.65-2-1Z"/><path class="cls-12" d="M74.69,53.4c-.63.66-1.23,1.34-1.77,2A117.07,117.07,0,0,1,89.13,82.45c.65-.29,1.32-.58,2-.86A118.31,118.31,0,0,0,74.69,53.4Z"/><path class="cls-12" d="M84.58,84.57c.71-.35,1.45-.71,2.22-1.07A117,117,0,0,0,71.23,57.42l-.06.08c-.39.8-.74,1.61-1.07,2.44A118.44,118.44,0,0,1,84.58,84.57Z"/><path class="cls-12" d="M78.6,50.06a10.78,10.78,0,0,0-2.07,1.52,118.92,118.92,0,0,1,17,29.06c1.27-.5,2.59-1,4-1.47C91,65,83.73,55.58,78.6,50.06Z"/><path class="cls-12" d="M108.39,102.38s0,.06,0,.09c.79-.22,1.58-.45,2.34-.73,0,0,0-.11-.08-.17C109.94,101.86,109.17,102.13,108.39,102.38Z"/><path class="cls-8" d="M106.82,102.87c.54-.11,1.06-.26,1.59-.4,0,0,0-.06,0-.09C107.87,102.55,107.36,102.72,106.82,102.87Z"/><path class="cls-15" d="M97.48,79.17c.79-.28,1.61-.55,2.43-.81-.32-.73-.66-1.43-1-2.13q-1.12-2.37-2.26-4.56c-.6-1.16-1.21-2.27-1.81-3.35s-1.09-1.91-1.64-2.82c-.67-1.13-1.34-2.22-2-3.26s-1.36-2.09-2-3.07S87.69,57.08,87,56.12,85.36,54,84.59,53s-1.67-2-2.46-2.91c-1-1.11-1.92-2.11-2.78-3-.65.55-1.28,1.13-1.88,1.72l1.13,1.2C83.73,55.58,91,65,97.48,79.17Z"/><path class="cls-15" d="M86.8,83.5c.75-.35,1.53-.7,2.33-1A117.07,117.07,0,0,0,72.92,55.38L72.58,55a27.45,27.45,0,0,0-1.36,2.43s0,0,0,0A117,117,0,0,1,86.8,83.5Z"/><path class="cls-15" d="M82.31,85.74c.72-.38,1.48-.78,2.27-1.17A118.44,118.44,0,0,0,70.1,59.94c-.38,1-.71,2-1,3l.06.09A118.93,118.93,0,0,1,82.31,85.74Z"/><path class="cls-12" d="M81.85,97.92l-.19-.12a.17.17,0,0,0,0,0s0,.08,0,.12h0Z"/><path class="cls-15" d="M77.71,88.37c.69-.43,1.43-.87,2.21-1.31a119.85,119.85,0,0,0-11.57-20l-.1-.14a31.75,31.75,0,0,0-.33,4L68,71A122.33,122.33,0,0,1,77.71,88.37Z"/><path class="cls-12" d="M85.11,99.9l-.72-.4a.6.6,0,0,1-.11.06c.29.17.58.34.89.5l0-.07Z"/><path class="cls-12" d="M79.45,96.17l-.06,0,.19.16a.61.61,0,0,0,0-.12Z"/><path class="cls-15" d="M76.47,89.13A124.16,124.16,0,0,0,68,73.7a31.68,31.68,0,0,0,1.24,7c1.71,3,3.43,6.28,5.1,9.88C75,90.11,75.68,89.64,76.47,89.13Z"/><path class="cls-15" d="M91.14,81.59c.77-.32,1.55-.64,2.36-1a118.92,118.92,0,0,0-17-29.06l-.75-.93c-.58.66-1.14,1.34-1.66,2.05l.57.7A118.31,118.31,0,0,1,91.14,81.59Z"/><path class="cls-12" d="M80.09,96.67c.53.39,1,.77,1.57,1.13l.19.12c9.68-5.29,25.25-11.51,47.43-13.87.42-1,.77-1.92,1.06-2.81-24.09,2.45-40.84,9.35-50.89,14.93l.08.07Z"/><path class="cls-12" d="M75.76,92.68c.51.58,1,1.13,1.61,1.68,10.27-5.89,27.83-13.29,53.7-15.72.09-.42.2-.83.28-1.26,0-.18.07-.36.1-.54.12-.74.19-1.49.26-2.24C102.08,77.38,83.86,87.19,75.76,92.68Z"/><path class="cls-12" d="M87.12,100.91c9-4.43,21.92-9.12,39.23-11.51.6-.89,1.14-1.78,1.62-2.66C108.09,89.12,93.7,94.65,84.39,99.5l.72.4C85.79,100.26,86.46,100.6,87.12,100.91Z"/><path class="cls-12" d="M108.76,102.37c.78-.25,1.18-.51,1.91-.8,1.08-.42,2.1-.88,3.07-1.35l1.1-.56a128.44,128.44,0,0,0-13.54,4,31.35,31.35,0,0,0,5.52-.74C107.36,102.72,108.24,102.54,108.76,102.37Z"/><path class="cls-12" d="M120.44,95.9l1-.84a31.33,31.33,0,0,0,2.74-2.81,126.91,126.91,0,0,0-33.77,9.94A32.19,32.19,0,0,0,95,103.27,129.37,129.37,0,0,1,120.44,95.9Z"/><path class="cls-15" d="M126.42,72.62c-1,.12-2,.25-3,.39l-2.76.41-2.37.4-2.77.52c-1.14.22-2.27.46-3.37.7s-1.93.44-2.88.66-1.67.41-2.48.63c-1,.26-2,.53-2.91.8L101,78l-1.11.36c-.82.26-1.64.53-2.43.81-1.39.48-2.71,1-4,1.47-.81.31-1.59.63-2.36,1s-1.36.57-2,.86-1.58.7-2.33,1-1.51.72-2.22,1.07-1.55.79-2.27,1.17-1.64.89-2.39,1.32-1.52.88-2.21,1.31c-.43.26-.85.51-1.24.76-.79.51-1.5,1-2.16,1.44l-.16.11c.51.69,1,1.35,1.61,2,8.1-5.49,26.32-15.3,56-18.08.08-.84.11-1.69.12-2.55l-2.69.25Z"/><path class="cls-15" d="M81.85,97.92l-.11.06c.82.57,1.67,1.09,2.54,1.58a.6.6,0,0,0,.11-.06c9.31-4.85,23.7-10.38,43.58-12.76h.1A28.81,28.81,0,0,0,129.35,84h-.07C107.1,86.41,91.53,92.63,81.85,97.92Z"/><path class="cls-15" d="M87.12,100.91l-.06,0h0a29.72,29.72,0,0,0,3.34,1.25,126.91,126.91,0,0,1,33.77-9.94l.19,0a32.84,32.84,0,0,0,2.13-2.84l-.13,0C109,91.79,96.09,96.48,87.12,100.91Z"/><path class="cls-15" d="M95,103.27a31.94,31.94,0,0,0,6,.37,3.16,3.16,0,0,0,.32,0,128.44,128.44,0,0,1,13.54-4l.83-.19a32.34,32.34,0,0,0,5.17-3.65l-.4.08A129.37,129.37,0,0,0,95,103.27Z"/><path class="cls-15" d="M77.37,94.36c.65.64,1.33,1.26,2,1.84l.06,0c10-5.58,26.8-12.48,50.89-14.93h0c.27-.84.49-1.71.69-2.59C105.2,81.07,87.64,88.47,77.37,94.36Z"/><path class="cls-16" d="M76.46,72.37c3.55-12-2.18-15-5.2-15-.05,0,0-.1,0-.15s0,0,0,0l0,.1c-.39.79-.74,1.61-1.07,2.44s-.71,2-1,3a31.73,31.73,0,0,0-.85,4,32.06,32.06,0,0,0-.33,4.06c0,.6,0,1.2,0,1.8,0,.18,0,.34,0,.51s0,.28,0,.42a32.26,32.26,0,0,0,1.24,7,31.85,31.85,0,0,0,4.94,10c.51.68,1,1.35,1.61,2s1,1.13,1.6,1.68,1.33,1.25,2,1.84l.19.16c.69.56,1.41,1.1,2.14,1.61h0c.82.57,1.67,1.09,2.55,1.58.3.17.58.34.89.5.61.32,1.24.6,1.88.88a31.93,31.93,0,0,0,8,2.32,31.11,31.11,0,0,0,6,.38l.32,0a31.35,31.35,0,0,0,5.52-.74c.34-.1.81-.2,1.25-.32l.34-.08.1,0a2.33,2.33,0,0,1,.25-.07l.18-.07c.61-.17,1.22-.34,1.81-.56a30.58,30.58,0,0,0,2.83-1.17c.71-.34,1.41-.71,2.09-1.1a32.22,32.22,0,0,0,5.17-3.66l.4-.35a31.6,31.6,0,0,0,3.1-3.24,31,31,0,0,0,2.14-2.84c.57-.86,1.1-1.74,1.59-2.65s.9-1.77,1.28-2.69.72-1.85,1-2.81.5-1.71.7-2.59c.09-.42.2-.83.27-1.26,0-.19.07-.37.11-.54.12-.74.2-1.49.26-2.25s.11-1.68.12-2.54c0-.5,0-1,0-1.5,0-.31-.06-.6-.08-.89A154.28,154.28,0,0,0,106,74.25C88.27,79,71.1,90.6,76.46,72.37Z"/><path class="cls-17" d="M123.34,62.4c-1.77,3.12-5.42-4.62-13.33-9.11s-17.08-4-15.31-7.16,9.58-3.71,17.49.78S125.12,59.28,123.34,62.4Z"/><path class="cls-2" d="M83.67,87c0,.13,0,.27-.08.41C83.62,87.24,83.65,87.11,83.67,87Z"/><path class="cls-12" d="M43.23,66.48c-.3-.33-.59-.63-.87-.92-.44.44-.88.89-1.29,1.37l.58.71A8.16,8.16,0,0,1,43.23,66.48Z"/><path class="cls-13" d="M46,62.64a25.89,25.89,0,0,0-2.14,1.6c.66.68,1.37,1.44,2.12,2.29C46,65.19,46,63.89,46,62.64Z"/><path class="cls-12" d="M40.24,69l-.43-.53a20.29,20.29,0,0,0-1.18,1.73l.25.32C39.3,70.06,39.76,69.54,40.24,69Z"/><path class="cls-13" d="M84,83.3c0-.38,0-.76,0-1.15a24.41,24.41,0,0,0-.73-5.1c-.35,2-.79,4.18-1.35,6.44Z"/><path class="cls-13" d="M79.82,83.74a91.39,91.39,0,0,0,2-10.71,25,25,0,0,0-2-3.55A88,88,0,0,1,77.54,84Q78.67,83.88,79.82,83.74Z"/><path class="cls-13" d="M52.88,75.79a90.29,90.29,0,0,0,1.29-16.67c-.64.14-1.27.32-1.88.51a91.22,91.22,0,0,1-1,13.82C51.83,74.2,52.35,75,52.88,75.79Z"/><path class="cls-13" d="M49.63,71.11a88,88,0,0,0,.67-10.77,24,24,0,0,0-2.4,1.13c.06,2.28,0,4.72-.09,7.29C48.41,69.5,49,70.28,49.63,71.11Z"/><path class="cls-2" d="M37.58,72.09l0,.08.05-.06Z"/><path class="cls-12" d="M35.06,82.47c0,.46,0,.91,0,1.38,0,.13,0,.26,0,.39,0-.57,0-1.14,0-1.74C35.08,82.49,35.07,82.48,35.06,82.47Z"/><path class="cls-12" d="M44.37,102.14l-.42-.33,0,.09c.53.44,1.08.85,1.64,1.23l0-.09C45.18,102.76,44.78,102.46,44.37,102.14Z"/><path class="cls-12" d="M76,100.91c0,.1-.09.2-.13.31a27.88,27.88,0,0,0,2.38-2.48l-.15,0A23.49,23.49,0,0,1,76,100.91Z"/><path class="cls-12" d="M70.12,104.85l-.12.27c.54-.26,1.07-.54,1.6-.84l-.64.15Z"/><path class="cls-12" d="M48.24,104.68s0,0,0,0c.47.25,1,.46,1.44.68h0C49.22,105.18,48.73,104.94,48.24,104.68Z"/><path class="cls-13" d="M55.67,80.45a94.11,94.11,0,0,0,2.42-21.87c-.65,0-1.31.08-2,.17a91.44,91.44,0,0,1-1.73,19.54Q55,79.34,55.67,80.45Z"/><path class="cls-12" d="M82,92.48h0c.3-.7.56-1.42.79-2.15h0C82.6,91,82.33,91.73,82,92.48Z"/><path class="cls-12" d="M36,76.36l0-.06a25.72,25.72,0,0,0-.65,3.07,1,1,0,0,1,.08.11C35.54,78.48,35.74,77.44,36,76.36Z"/><path class="cls-12" d="M79.77,96.58l.1,0c.43-.65.84-1.33,1.21-2H81C80.64,95.22,80.23,95.9,79.77,96.58Z"/><path class="cls-13" d="M73.62,84.66l1.81-.31A86.83,86.83,0,0,0,78,67a24.27,24.27,0,0,0-1.93-2A83,83,0,0,1,73.62,84.66Z"/><path class="cls-13" d="M58.78,86.5A86.66,86.66,0,0,0,63.2,58.81a27,27,0,0,0-3.13-.26,96.18,96.18,0,0,1-3,24.46C57.63,84.12,58.21,85.29,58.78,86.5Z"/><path class="cls-13" d="M66.72,86.1A89.29,89.29,0,0,0,71,61.42q-1-.53-2-1a87.18,87.18,0,0,1-4.19,26.11Z"/><path class="cls-13" d="M62.59,87.19A87,87,0,0,0,67,59.72c-.62-.19-1.24-.37-1.87-.52a88,88,0,0,1-4.78,28.66C61.1,87.63,61.84,87.41,62.59,87.19Z"/><path class="cls-13" d="M71.49,85.05a82.17,82.17,0,0,0,2.64-21.67c-.38-.28-.77-.55-1.16-.81a89.37,89.37,0,0,1-4,23C69.76,85.4,70.62,85.22,71.49,85.05Z"/><path class="cls-14" d="M73.62,84.66A83,83,0,0,0,76.11,65a23.58,23.58,0,0,0-2-1.64,82.17,82.17,0,0,1-2.64,21.67C72.19,84.92,72.9,84.78,73.62,84.66Z"/><path class="cls-14" d="M64.82,86.57A87.18,87.18,0,0,0,69,60.46c-.64-.27-1.3-.52-2-.74a87,87,0,0,1-4.45,27.47Z"/><path class="cls-14" d="M59.54,88.13c.28-.09.56-.19.85-.27A88,88,0,0,0,65.17,59.2c-.65-.15-1.31-.29-2-.39A86.66,86.66,0,0,1,58.78,86.5C59,87,59.29,87.57,59.54,88.13Z"/><path class="cls-14" d="M68.92,85.59a89.37,89.37,0,0,0,4-23c-.63-.41-1.28-.8-2-1.15a89.29,89.29,0,0,1-4.3,24.68C67.44,85.92,68.17,85.75,68.92,85.59Z"/><path class="cls-14" d="M54.41,78.29a91.44,91.44,0,0,0,1.73-19.54c-.67.09-1.32.23-2,.37a90.29,90.29,0,0,1-1.29,16.67C53.39,76.59,53.9,77.43,54.41,78.29Z"/><path class="cls-14" d="M51.31,73.45a91.22,91.22,0,0,0,1-13.82c-.68.21-1.34.45-2,.71a88,88,0,0,1-.67,10.77Q50.47,72.22,51.31,73.45Z"/><path class="cls-14" d="M47.81,68.76c.13-2.57.15-5,.09-7.29Q46.9,62,46,62.64c0,1.25,0,2.55,0,3.89C46.53,67.22,47.16,68,47.81,68.76Z"/><path class="cls-14" d="M57.05,83a96.18,96.18,0,0,0,3-24.46c-.47,0-.94,0-1.41,0l-.57,0a94.11,94.11,0,0,1-2.42,21.87C56.13,81.28,56.59,82.13,57.05,83Z"/><path class="cls-12" d="M75.25,101.55l.3-.06.31-.27c0-.11.09-.21.13-.31C75.75,101.13,75.5,101.34,75.25,101.55Z"/><path class="cls-14" d="M81.9,83.49c.56-2.26,1-4.4,1.35-6.44a23.85,23.85,0,0,0-1.39-4,91.39,91.39,0,0,1-2,10.71Z"/><path class="cls-12" d="M67.77,105.89l.06.13a21.56,21.56,0,0,0,2.17-.9l.12-.27C69.38,105.22,68.6,105.57,67.77,105.89Z"/><path class="cls-14" d="M77.54,84a88,88,0,0,0,2.35-14.56A23.59,23.59,0,0,0,78,67a86.83,86.83,0,0,1-2.61,17.33Z"/><path class="cls-12" d="M36,76.36c-.27,1.08-.47,2.12-.62,3.12a91.93,91.93,0,0,1,8.85,15.3l1.83-1A91.14,91.14,0,0,0,36,76.36Z"/><path class="cls-12" d="M45.59,103a.08.08,0,0,1,0,0c-.4-.27-.79-.56-1.2-.86C44.78,102.46,45.18,102.76,45.59,103Z"/><path class="cls-12" d="M36,89.91a24.39,24.39,0,0,0,3.79,7.64l.12-.08C38.67,94.72,37.36,92.2,36,89.91Z"/><path class="cls-12" d="M42.55,95.78A92.79,92.79,0,0,0,35.08,82.5c0,.6,0,1.17,0,1.74l0,.32a94,94,0,0,1,6.5,11.81Z"/><path class="cls-12" d="M48.24,104.68c.49.26,1,.5,1.46.72l0,0c-.51-.23-1-.49-1.54-.77Z"/><path class="cls-12" d="M40.24,69c-.48.51-.94,1-1.36,1.52A89.3,89.3,0,0,1,51.29,91.26l1.54-.66A90.7,90.7,0,0,0,40.24,69Z"/><path class="cls-12" d="M47.81,92.89c.54-.28,1.11-.55,1.7-.83a90,90,0,0,0-11.91-20l-.05.06c-.3.61-.57,1.23-.82,1.87A90.31,90.31,0,0,1,47.81,92.89Z"/><path class="cls-12" d="M43.23,66.48a8.16,8.16,0,0,0-1.58,1.16,90.66,90.66,0,0,1,13,22.24c1-.39,2-.76,3-1.13A83.65,83.65,0,0,0,43.23,66.48Z"/><path class="cls-12" d="M66,106.51s0,0,0,.07c.6-.17,1.21-.34,1.79-.56l-.06-.13C67.21,106.11,66.62,106.32,66,106.51Z"/><path class="cls-8" d="M64.83,106.89c.41-.09.81-.2,1.21-.31,0,0,0,0,0-.07C65.63,106.64,65.24,106.77,64.83,106.89Z"/><path class="cls-15" d="M57.68,88.75c.6-.21,1.23-.42,1.86-.62-.25-.56-.51-1.1-.76-1.63-.57-1.21-1.15-2.38-1.73-3.49-.46-.88-.92-1.73-1.38-2.56s-.84-1.46-1.26-2.16c-.51-.86-1-1.7-1.53-2.5s-1.05-1.59-1.57-2.34-1.12-1.6-1.68-2.34-1.22-1.61-1.82-2.35-1.28-1.54-1.88-2.23c-.75-.85-1.46-1.61-2.12-2.29-.5.42-1,.86-1.45,1.32.28.29.57.59.87.92A83.65,83.65,0,0,1,57.68,88.75Z"/><path class="cls-15" d="M49.51,92.06c.57-.27,1.16-.53,1.78-.8A89.3,89.3,0,0,0,38.88,70.55l-.25-.32c-.37.61-.73,1.23-1.05,1.86l0,0A90,90,0,0,1,49.51,92.06Z"/><path class="cls-15" d="M46.07,93.78c.56-.3,1.13-.6,1.74-.89A90.31,90.31,0,0,0,36.73,74c-.29.73-.55,1.49-.77,2.26l0,.06A91.14,91.14,0,0,1,46.07,93.78Z"/><path class="cls-12" d="M45.72,103.1l-.15-.1a.08.08,0,0,0,0,0l0,.09h0Z"/><path class="cls-15" d="M42.55,95.78l1.69-1a91.93,91.93,0,0,0-8.85-15.3,1,1,0,0,0-.08-.11,24.3,24.3,0,0,0-.25,3.1s0,0,0,0A92.79,92.79,0,0,1,42.55,95.78Z"/><path class="cls-12" d="M48.21,104.61l-.55-.3-.08,0c.22.13.44.26.68.38,0,0,0,0,0,0Z"/><path class="cls-12" d="M43.88,101.76l0,0,.14.12,0-.09Z"/><path class="cls-15" d="M41.6,96.37a94,94,0,0,0-6.5-11.81A24.75,24.75,0,0,0,36,89.91c1.32,2.29,2.63,4.81,3.91,7.56C40.46,97.12,41,96.76,41.6,96.37Z"/><path class="cls-15" d="M52.83,90.6l1.8-.72a90.66,90.66,0,0,0-13-22.24l-.58-.71c-.44.5-.87,1-1.26,1.57l.43.53A90.7,90.7,0,0,1,52.83,90.6Z"/><path class="cls-12" d="M44.37,102.14c.41.3.8.59,1.2.86l.15.1c7.4-4,19.31-8.81,36.29-10.62.32-.75.59-1.47.81-2.15-18.43,1.88-31.25,7.16-38.94,11.43l.07,0Z"/><path class="cls-12" d="M41.06,99.09c.39.44.81.86,1.23,1.28,7.86-4.5,21.29-10.17,41.09-12,.07-.32.15-.64.21-1,0-.14.06-.28.08-.41.09-.57.15-1.14.2-1.72C61.2,87.38,47.25,94.88,41.06,99.09Z"/><path class="cls-12" d="M49.75,105.38a98.18,98.18,0,0,1,30-8.8c.46-.68.87-1.36,1.24-2-15.21,1.82-26.22,6-33.35,9.77l.55.3C48.73,104.89,49.24,105.15,49.75,105.38Z"/><path class="cls-12" d="M66.31,106.5c.6-.19.9-.39,1.46-.61.83-.32,1.61-.67,2.35-1l.84-.42a95.52,95.52,0,0,0-10.36,3,24.47,24.47,0,0,0,4.23-.56C65.24,106.77,65.91,106.63,66.31,106.5Z"/><path class="cls-12" d="M75.25,101.55c.25-.21.5-.42.74-.64a23.49,23.49,0,0,0,2.1-2.15,96.79,96.79,0,0,0-25.83,7.61,25.39,25.39,0,0,0,3.52.82A99,99,0,0,1,75.25,101.55Z"/><path class="cls-15" d="M79.82,83.74q-1.16.14-2.28.3l-2.11.31-1.81.31c-.72.12-1.43.26-2.13.39-.87.17-1.73.35-2.57.54s-1.48.33-2.2.51l-1.9.47-2.23.62c-.75.22-1.49.44-2.2.67-.29.08-.57.18-.85.27-.63.2-1.26.41-1.86.62-1.06.37-2.07.74-3,1.13l-1.8.72-1.54.66c-.62.27-1.21.53-1.78.8s-1.16.55-1.7.83-1.18.59-1.74.89l-1.83,1-1.69,1-.95.59c-.6.39-1.14.75-1.65,1.1l-.12.08c.39.53.8,1,1.23,1.54,6.19-4.21,20.14-11.71,42.81-13.84.06-.64.08-1.29.09-2l-2.06.19Z"/><path class="cls-15" d="M45.72,103.1l-.09,0c.63.43,1.28.84,1.95,1.21l.08,0c7.13-3.72,18.14-8,33.35-9.77h.07a22.81,22.81,0,0,0,1-2.06h0C65,94.29,53.12,99.05,45.72,103.1Z"/><path class="cls-15" d="M49.75,105.38l0,0h0a27,27,0,0,0,2.56,1,96.79,96.79,0,0,1,25.83-7.61l.15,0c.57-.7,1.12-1.42,1.63-2.18l-.1,0A98.18,98.18,0,0,0,49.75,105.38Z"/><path class="cls-15" d="M55.78,107.19a24,24,0,0,0,4.58.28l.24,0a95.52,95.52,0,0,1,10.36-3l.64-.15a24.27,24.27,0,0,0,4-2.79l-.3.06A99,99,0,0,0,55.78,107.19Z"/><path class="cls-15" d="M42.29,100.37c.5.49,1,1,1.55,1.41l0,0c7.69-4.27,20.51-9.55,38.94-11.43h0c.2-.65.38-1.31.53-2C63.58,90.2,50.15,95.87,42.29,100.37Z"/><path class="cls-16" d="M41.6,83.55c2.71-9.22-1.67-11.46-4-11.47,0,0,0-.08,0-.12v0s0,.06,0,.08c-.3.61-.57,1.23-.82,1.87s-.54,1.49-.76,2.26a23.91,23.91,0,0,0-.66,3.07,24.31,24.31,0,0,0-.24,3.1c0,.46,0,.92,0,1.38,0,.13,0,.26,0,.38s0,.22,0,.33a24.16,24.16,0,0,0,.94,5.35,24.53,24.53,0,0,0,3.78,7.65q.58.78,1.23,1.53c.39.44.81.87,1.23,1.28s1,1,1.55,1.41l.15.12A19.47,19.47,0,0,0,45.64,103s0,0,0,0c.63.44,1.27.84,1.94,1.22.23.12.45.26.68.37.47.25.95.47,1.44.68a24.45,24.45,0,0,0,6.08,1.78,24,24,0,0,0,4.58.28l.25,0a24.49,24.49,0,0,0,4.22-.56c.26-.08.62-.16,1-.24l.26-.07.08,0,.19-.06.14,0c.47-.13.93-.26,1.39-.43A20.47,20.47,0,0,0,70,105c.55-.25,1.08-.54,1.6-.84a23.85,23.85,0,0,0,4-2.79l.31-.27a25.3,25.3,0,0,0,2.38-2.48,24.72,24.72,0,0,0,1.63-2.18c.44-.65.84-1.33,1.22-2s.68-1.36,1-2.06.55-1.42.78-2.15.38-1.31.53-2c.07-.32.15-.64.21-1,0-.14.06-.28.08-.41.1-.57.15-1.14.21-1.72s.08-1.29.09-2c0-.38,0-.76,0-1.15,0-.23,0-.45-.06-.68A120.35,120.35,0,0,0,64.23,85C50.63,88.63,37.5,97.5,41.6,83.55Z"/><path class="cls-17" d="M77.47,75.92c-1.36,2.38-4.15-3.54-10.2-7S54.2,65.86,55.55,63.47s7.33-2.84,13.38.6S78.82,73.53,77.47,75.92Z"/><path class="cls-18" d="M22.32,76.19S77.67,43.79,115.1,26.3c0,0,12.51-9.7,15.52-5.92,3.52,4.42-8.13,7.54-13.62,9.79C110.1,33,18.61,82.55,22.32,76.19Z"/><path class="cls-19" d="M117,30.17c5.49-2.25,17.14-5.37,13.62-9.79a2.37,2.37,0,0,0-.5-.45c-1.28,4.75-13.85,8.39-13.85,8.39L90.79,40.65C59.24,58.43,38.73,68.21,27.61,73.12c-3.37,1.94-5.29,3.07-5.29,3.07C18.61,82.55,110.1,33,117,30.17Z"/><path class="cls-20" d="M77.65,26.88s-6.4,3.3-1.22,7.51,10.86,8.22,12,5.16S80.15,28.27,77.65,26.88Z"/><path class="cls-21" d="M96.26,19.37a5.19,5.19,0,0,0-2.89,4.31c-.31,3-6.35,9.34-8.54,8.73a9,9,0,0,1-2-1.37l-4,5.18a10.92,10.92,0,0,0,5.27,3.21c1.16.21,4.74.16,9.38-9.54C98.58,19.15,96.61,19.15,96.26,19.37Z"/><path class="cls-21" d="M68.45,54c-.25,4.08,2.37,9.27,12.32,4.28,3.62-1.82,5.88-6.18,10.71-9.63,3.34-2.39-1.57,15.76,6.78,16.45,0,0,4,.58,3.47-.58s-4-2-3.92-3.75,4.83-22.8-1.35-24.51S68.93,45.71,68.45,54Z"/><path class="cls-22" d="M69.37,49.52C66.79,53.1,60.67,60.68,71,61c3.19.11,11.24.17,14.95-5.52,0,0,4.94-8.34,6.13-6.19.88,1.59.08,7.78.88,11.31a6.21,6.21,0,0,0,5.38-.71s5.25-20.44-2-24.14C91,33.09,75.59,40.87,69.37,49.52Z"/><path class="cls-21" d="M66.06,52.39c-2.92,2.87-4.46,8.47,6.27,11.43,3.9,1.08,8.5-.63,14.4,0,4.08.47-11.73,10.65-6,16.75,0,0,2.55,3.1,3,1.9s-1.63-4.2-.4-5.41S102.17,63.43,98.73,58,72,46.56,66.06,52.39Z"/><path class="cls-23" d="M69.75,49.68c-4.31.93-10.21-.46-9,8.38.43,3.17,6.66,9.25,17.29,7.19,0,0,9.26-2.88,8.7-.47-.41,1.76-5.15,5.82-6.92,9a6.21,6.21,0,0,0,4.46,3.09S101.87,65.19,99,57.56C96.83,52,80.17,47.43,69.75,49.68Z"/><path class="cls-4" d="M69.7,10.57c-2.2-1.45-9.13-2.94-11.47,5.55-.51,1.86-.76,5-3.92,6.64-2.23,1.17-6.55,6.17-.73,11.48s-1.79,8.62,3.51,9.41,16.22-4.49,17.67-12.43C77.05,18.72,74.14,13.49,69.7,10.57Z"/><path class="cls-18" d="M68.72,24.72s-1,.33,1.75,5.37,3.39,5.15,3.39,5.15,6.58-1.33,7.32-6.18C81.18,29.06,74.15,20.62,68.72,24.72Z"/><path class="cls-24" d="M66.48,20.79s-11.92,3.72-11.3,9c.29,2.39,2.39,4.6,2.82,6.47.71,3.1-1,5.13,2,5.39,7.58.67,12.78-12.75,12.78-12.75L67.79,17.47Z"/><path class="cls-13" d="M79.81,44.78C78.18,39.2,78.91,32.61,77,28c-2.6-6.44-8.94-5.65-12.66-4.45s-9.86,3-6.2,10.88c2.56,5.47,1.81,9.23,1,15.13h0c0,.15-.05.29-.08.44h0C57.27,56.54,81.46,50.47,79.81,44.78Z"/><path class="cls-10" d="M59.1,50h0C56.68,64.3,70.29,54.5,77.07,48.88c.36-2-6.57-1-9-1.64-5.69-1.59-3.32-6.88-2.13-11.6,1-4.17.73-7.79-2.14-9.5-4.25-2.54-7.73,2-6.61,5.3a28.71,28.71,0,0,0,1,3C60.74,39.87,59.1,50,59.1,50Z"/><path class="cls-25" d="M65.13,17.47s.75,4.16-.53,6c-.82,1.16,5.88,3.76,5.75,2.19-.18-2-1.33-3.26,0-5.53Z"/><path class="cls-21" d="M69.63,11.86c1.7,1.75,5.64,10.15,1.62,11.74-1.82.71-5.54-1-7.49-4.28-.8-1.37-.67-4.28.8-6.71C65.22,11.51,67.68,9.82,69.63,11.86Z"/><path class="cls-4" d="M72,14.71c.17,1-2.57-2.39-3.18-.19s-3.1,1.74-3.41,5.92c-.22,2.86-3.52-2.19-3.76-2.57-1-1.64-1-1.64.71-5.13S71.18,9.45,72,14.71Z"/><path class="cls-18" d="M29.49,90.33S70.1,40.68,99.1,11.26c0,0,8.35-13.45,12.49-10.95,4.84,2.92-5,9.9-9.36,13.91C96.74,19.28,28.23,97.58,29.49,90.33Z"/><path class="cls-19" d="M102.23,14.22c4.36-4,14.2-11,9.36-13.91A2.15,2.15,0,0,0,111,.07c.45,4.9-10.07,12.69-10.07,12.69L81.3,33.18c-23.38,27.65-39.2,44-47.92,52.43-2.48,3-3.89,4.72-3.89,4.72C28.23,97.58,96.74,19.28,102.23,14.22Z"/><path class="cls-21" d="M63.94,31.91s-3.73-6.19-7.23,0S50,44.73,53.4,45.36,62,37.86,63.94,31.91Z"/><path class="cls-21" d="M73.14,52.29a5.2,5.2,0,0,0-4.73-2.13c-3,.18-10.27-4.72-10-7a9.3,9.3,0,0,1,1-2.2l-5.77-3.12a10.9,10.9,0,0,0-2.29,5.73c0,1.18.62,4.7,11,7.67C73.74,54.54,73.41,52.6,73.14,52.29Z"/><path class="cls-18" d="M62.8,27s-3-2-6.12,2.47a29.21,29.21,0,0,0-3.79,6.79,19,19,0,0,0,8.3,4S67.47,29.12,62.8,27Z"/><path class="cls-2" d="M145,88.78c0,.13-.05.27-.08.42C145,89.06,145,88.92,145,88.78Z"/><path class="cls-3" d="M104.25,68.12c-.3-.33-.59-.63-.87-.92a18.78,18.78,0,0,0-1.3,1.38l.58.72A8.39,8.39,0,0,1,104.25,68.12Z"/><path class="cls-4" d="M107,64.25a26.43,26.43,0,0,0-2.16,1.62c.67.68,1.39,1.45,2.15,2.31C107,66.82,107,65.52,107,64.25Z"/><path class="cls-3" d="M101.23,70.69l-.43-.53c-.42.56-.82,1.14-1.19,1.74.09.11.17.22.26.32C100.29,71.73,100.75,71.21,101.23,70.69Z"/><path class="cls-4" d="M145.32,85.09c0-.39,0-.78,0-1.17a24.13,24.13,0,0,0-.73-5.14q-.53,3.07-1.36,6.5Z"/><path class="cls-4" d="M141.14,85.52a92.85,92.85,0,0,0,2.06-10.79,25.07,25.07,0,0,0-2-3.59,89.56,89.56,0,0,1-2.37,14.69Z"/><path class="cls-4" d="M114,77.52a91.32,91.32,0,0,0,1.31-16.82c-.65.15-1.28.32-1.9.52a91.37,91.37,0,0,1-1,13.93C112.92,75.9,113.45,76.69,114,77.52Z"/><path class="cls-4" d="M110.71,72.79a89.35,89.35,0,0,0,.66-10.86A25.3,25.3,0,0,0,109,63.07c.06,2.3,0,4.76-.09,7.35C109.47,71.16,110.08,72,110.71,72.79Z"/><path class="cls-2" d="M98.56,73.78a.2.2,0,0,1,0,.08l0-.06S98.56,73.79,98.56,73.78Z"/><path class="cls-2" d="M96,84.24c0,.46,0,.93,0,1.4,0,.13,0,.25,0,.39,0-.57,0-1.15,0-1.75Z"/><path class="cls-2" d="M105.41,104.07l-.44-.33a.3.3,0,0,1,0,.1c.53.43,1.08.84,1.65,1.24a.3.3,0,0,0,0-.1C106.22,104.7,105.81,104.39,105.41,104.07Z"/><path class="cls-5" d="M137.28,102.83c0,.11-.09.21-.13.31a23.53,23.53,0,0,0,2.39-2.5l-.14,0A22.7,22.7,0,0,1,137.28,102.83Z"/><path class="cls-5" d="M131.36,106.81l-.12.27c.55-.26,1.08-.54,1.61-.85l-.64.15Z"/><path class="cls-5" d="M109.3,106.63a.14.14,0,0,1,0,.06c.47.25,1,.46,1.45.68h0C110.29,107.14,109.79,106.9,109.3,106.63Z"/><path class="cls-4" d="M116.79,82.21a95.87,95.87,0,0,0,2.45-22c-.66,0-1.33.08-2,.17A92.22,92.22,0,0,1,115.53,80C116,80.73,116.37,81.46,116.79,82.21Z"/><path class="cls-2" d="M143.35,94.34h.05c.3-.7.56-1.42.8-2.16h0C143.94,92.86,143.67,93.58,143.35,94.34Z"/><path class="cls-6" d="M97,78.09l0-.07a22.94,22.94,0,0,0-.66,3.09l.08.12A30.08,30.08,0,0,1,97,78.09Z"/><path class="cls-2" d="M141.08,98.47l.11,0a23.38,23.38,0,0,0,1.22-2h-.07C142,97.1,141.55,97.78,141.08,98.47Z"/><path class="cls-4" d="M134.89,86.45l1.82-.31a87.71,87.71,0,0,0,2.64-17.47,23.25,23.25,0,0,0-1.95-2A84,84,0,0,1,134.89,86.45Z"/><path class="cls-4" d="M119.93,88.3a87.32,87.32,0,0,0,4.45-27.91,25.09,25.09,0,0,0-3.15-.26,96.59,96.59,0,0,1-3,24.66C118.77,85.91,119.35,87.09,119.93,88.3Z"/><path class="cls-4" d="M127.93,87.9A89.84,89.84,0,0,0,132.27,63c-.66-.35-1.33-.68-2-1A88.24,88.24,0,0,1,126,88.38Z"/><path class="cls-4" d="M123.77,89a87.37,87.37,0,0,0,4.48-27.68c-.62-.2-1.24-.38-1.88-.53a88.51,88.51,0,0,1-4.82,28.88Z"/><path class="cls-4" d="M132.75,86.85A83.22,83.22,0,0,0,135.4,65c-.38-.28-.77-.54-1.16-.8a90.26,90.26,0,0,1-4.09,23.2C131,87.2,131.86,87,132.75,86.85Z"/><path class="cls-7" d="M134.89,86.45a84,84,0,0,0,2.51-19.8,22.86,22.86,0,0,0-2-1.66,83.22,83.22,0,0,1-2.65,21.86Z"/><path class="cls-7" d="M126,88.38a88.24,88.24,0,0,0,4.23-26.33c-.66-.27-1.32-.52-2-.73A87.37,87.37,0,0,1,123.77,89Z"/><path class="cls-7" d="M120.69,90l.86-.28a88.51,88.51,0,0,0,4.82-28.88c-.66-.16-1.32-.3-2-.4a87.32,87.32,0,0,1-4.45,27.91C120.18,88.84,120.44,89.39,120.69,90Z"/><path class="cls-7" d="M130.15,87.39a90.26,90.26,0,0,0,4.09-23.2,21.72,21.72,0,0,0-2-1.17,89.84,89.84,0,0,1-4.34,24.88Z"/><path class="cls-7" d="M115.53,80a92.22,92.22,0,0,0,1.73-19.7c-.67.09-1.32.23-2,.37A91.32,91.32,0,0,1,114,77.52C114.49,78.32,115,79.16,115.53,80Z"/><path class="cls-7" d="M112.4,75.15a91.37,91.37,0,0,0,1-13.93c-.68.21-1.35.45-2,.71a89.35,89.35,0,0,1-.66,10.86C111.26,73.54,111.83,74.32,112.4,75.15Z"/><path class="cls-7" d="M108.87,70.42c.13-2.59.15-5,.09-7.35-.68.36-1.33.76-2,1.18,0,1.27,0,2.57,0,3.93C107.58,68.87,108.22,69.61,108.87,70.42Z"/><path class="cls-7" d="M118.18,84.79a96.59,96.59,0,0,0,3-24.66c-.47,0-.94,0-1.42,0l-.57,0a95.87,95.87,0,0,1-2.45,22C117.25,83,117.72,83.9,118.18,84.79Z"/><path class="cls-5" d="M136.53,103.48l.3-.06.32-.28c0-.1.09-.2.13-.31C137,103.05,136.78,103.27,136.53,103.48Z"/><path class="cls-7" d="M143.24,85.28q.84-3.42,1.36-6.5a24.21,24.21,0,0,0-1.4-4,92.85,92.85,0,0,1-2.06,10.79C141.84,85.43,142.53,85.35,143.24,85.28Z"/><path class="cls-5" d="M129,107.85l.06.14a23.45,23.45,0,0,0,2.19-.91l.12-.27C130.61,107.18,129.82,107.53,129,107.85Z"/><path class="cls-7" d="M138.84,85.83a89.56,89.56,0,0,0,2.37-14.69,24.92,24.92,0,0,0-1.86-2.47,87.71,87.71,0,0,1-2.64,17.47Z"/><path class="cls-3" d="M97,78.09a30.08,30.08,0,0,0-.63,3.14,92.28,92.28,0,0,1,8.92,15.43c.58-.33,1.2-.67,1.84-1A92.23,92.23,0,0,0,97,78.09Z"/><path class="cls-2" d="M106.62,105a.06.06,0,0,0,0,0q-.6-.41-1.2-.87C105.81,104.39,106.22,104.7,106.62,105Z"/><path class="cls-3" d="M97,91.75a24.54,24.54,0,0,0,3.81,7.7l.13-.08C99.66,96.59,98.33,94.05,97,91.75Z"/><path class="cls-3" d="M103.57,97.67A95.19,95.19,0,0,0,96,84.28c0,.6,0,1.18,0,1.75,0,.1,0,.21,0,.32a96.25,96.25,0,0,1,6.55,11.91Z"/><path class="cls-2" d="M109.3,106.63c.49.27,1,.51,1.48.74l0,0c-.51-.23-1-.5-1.55-.77Z"/><path class="cls-3" d="M101.23,70.69c-.48.52-.94,1-1.36,1.53a90.38,90.38,0,0,1,12.5,20.88l1.56-.66A91.06,91.06,0,0,0,101.23,70.69Z"/><path class="cls-3" d="M108.86,94.74l1.72-.83a90.34,90.34,0,0,0-12-20.11l0,.06c-.3.61-.57,1.24-.82,1.88A91.52,91.52,0,0,1,108.86,94.74Z"/><path class="cls-3" d="M104.25,68.12a8.39,8.39,0,0,0-1.59,1.18,91.39,91.39,0,0,1,13.09,22.41c1-.38,2-.76,3.07-1.14A84.59,84.59,0,0,0,104.25,68.12Z"/><path class="cls-5" d="M127.23,108.48s0,0,0,.07c.61-.17,1.22-.35,1.8-.56l-.06-.14C128.43,108.07,127.84,108.28,127.23,108.48Z"/><path class="cls-8" d="M126,108.86c.42-.09.82-.2,1.23-.31,0,0,0,0,0-.07C126.83,108.61,126.44,108.74,126,108.86Z"/><path class="cls-4" d="M118.82,90.57l1.87-.62c-.25-.56-.51-1.11-.76-1.65-.58-1.21-1.16-2.39-1.75-3.51-.46-.89-.93-1.75-1.39-2.58S116,80.73,115.53,80c-.52-.87-1-1.71-1.56-2.51s-1-1.62-1.57-2.37-1.14-1.61-1.69-2.36-1.24-1.63-1.84-2.37-1.29-1.55-1.89-2.24c-.76-.86-1.48-1.63-2.15-2.31-.5.42-1,.87-1.45,1.33.28.29.57.59.87.92A84.59,84.59,0,0,1,118.82,90.57Z"/><path class="cls-4" d="M110.58,93.91l1.79-.81a90.38,90.38,0,0,0-12.5-20.88c-.09-.1-.17-.21-.26-.32-.37.61-.73,1.24-1,1.88,0,0,0,0,0,0A90.34,90.34,0,0,1,110.58,93.91Z"/><path class="cls-4" d="M107.11,95.65l1.75-.91a91.52,91.52,0,0,0-11.16-19A22.62,22.62,0,0,0,96.93,78l0,.07A92.23,92.23,0,0,1,107.11,95.65Z"/><path class="cls-8" d="M106.76,105l-.15-.1a.06.06,0,0,1,0,0,.3.3,0,0,1,0,.1h0Z"/><path class="cls-4" d="M103.57,97.67c.53-.33,1.1-.67,1.7-1a92.28,92.28,0,0,0-8.92-15.43l-.08-.12A24.93,24.93,0,0,0,96,84.24l0,0A95.19,95.19,0,0,1,103.57,97.67Z"/><path class="cls-5" d="M109.27,106.57l-.55-.31-.09,0,.69.38a.14.14,0,0,0,0-.06Z"/><path class="cls-8" d="M104.91,103.69l0,0,.14.13a.3.3,0,0,0,0-.1Z"/><path class="cls-4" d="M102.61,98.26a96.25,96.25,0,0,0-6.55-11.91,24,24,0,0,0,1,5.4c1.32,2.3,2.65,4.84,3.94,7.62C101.46,99,102,98.65,102.61,98.26Z"/><path class="cls-4" d="M113.93,92.44c.59-.24,1.19-.49,1.82-.73A91.39,91.39,0,0,0,102.66,69.3l-.58-.72c-.45.51-.88,1-1.28,1.58l.43.53A91.06,91.06,0,0,1,113.93,92.44Z"/><path class="cls-4" d="M105.41,104.07q.6.47,1.2.87l.15.1c7.47-4.08,19.48-8.88,36.59-10.7.32-.76.59-1.48.81-2.17-18.58,1.89-31.5,7.21-39.25,11.52l.06,0Z"/><path class="cls-4" d="M102.06,101c.39.45.82.87,1.24,1.29,7.92-4.54,21.47-10.25,41.43-12.12.07-.32.15-.64.21-1,0-.15.06-.29.08-.42.09-.57.15-1.15.2-1.74C122.36,89.19,108.31,96.76,102.06,101Z"/><path class="cls-4" d="M110.82,107.34a98.76,98.76,0,0,1,30.26-8.87c.47-.69.89-1.37,1.26-2-15.34,1.83-26.44,6.1-33.62,9.84l.55.31C109.8,106.84,110.31,107.11,110.82,107.34Z"/><path class="cls-4" d="M127.52,108.47c.6-.2.91-.4,1.47-.62.83-.32,1.62-.67,2.37-1l.85-.43a96.27,96.27,0,0,0-10.44,3.05,24.71,24.71,0,0,0,4.25-.57C126.44,108.74,127.12,108.6,127.52,108.47Z"/><path class="cls-4" d="M136.53,103.48c.25-.21.51-.43.75-.65a22.7,22.7,0,0,0,2.12-2.17,97.6,97.6,0,0,0-26.05,7.68,24.73,24.73,0,0,0,3.55.82A100.22,100.22,0,0,1,136.53,103.48Z"/><path class="cls-9" d="M141.14,85.52l-2.3.31-2.13.31-1.82.31-2.14.4c-.89.17-1.75.35-2.6.54l-2.22.51-1.91.48-2.25.62-2.22.67-.86.28-1.87.62c-1.07.38-2.09.76-3.07,1.14-.63.24-1.23.49-1.82.73l-1.56.66-1.79.81-1.72.83-1.75.91c-.64.34-1.26.68-1.84,1s-1.17.68-1.7,1l-1,.59c-.61.39-1.15.76-1.66,1.11l-.13.08c.39.53.81,1,1.24,1.55,6.25-4.24,20.3-11.81,43.16-14,.07-.64.09-1.3.1-2l-2.08.19C142.53,85.35,141.84,85.43,141.14,85.52Z"/><path class="cls-9" d="M106.76,105l-.09,0c.64.43,1.29.84,2,1.22l.09,0c7.18-3.74,18.28-8,33.62-9.84h.07a20.79,20.79,0,0,0,1-2.08h-.05C126.24,96.16,114.23,101,106.76,105Z"/><path class="cls-9" d="M110.82,107.34l0,0h0a25.78,25.78,0,0,0,2.58,1,97.6,97.6,0,0,1,26.05-7.68l.14,0a25.08,25.08,0,0,0,1.65-2.19l-.11,0A98.76,98.76,0,0,0,110.82,107.34Z"/><path class="cls-9" d="M116.9,109.16a25.22,25.22,0,0,0,4.62.29l.25,0a96.27,96.27,0,0,1,10.44-3.05l.64-.15a24.2,24.2,0,0,0,4-2.81l-.3.06A100.22,100.22,0,0,0,116.9,109.16Z"/><path class="cls-9" d="M103.3,102.29c.5.5,1,1,1.57,1.42l0,0c7.75-4.31,20.67-9.63,39.25-11.52h0c.2-.66.38-1.32.53-2C124.77,92,111.22,97.75,103.3,102.29Z"/><path class="cls-10" d="M143.75,85.94a25.08,25.08,0,0,1-1.65,2.19,23.53,23.53,0,0,1-2.39,2.5l-.32.28a23.62,23.62,0,0,1-4,2.81c-.53.31-1.06.59-1.62.85a22.2,22.2,0,0,1-2.18.91c-.45.17-.92.3-1.4.43l-.14,0-.19.06-.07,0-.27.06-1,.25a14.07,14.07,0,0,1-4.82.21c-15.9-2.59.23-5.47-3.65-12.3-2.34-4.13-25.48,5.44-21.5-10.42a.21.21,0,0,0,0-.11,0,0,0,0,0,0,0l0,.08c-.31.61-.58,1.24-.83,1.88S97.18,77.21,97,78a24.21,24.21,0,0,0-.66,3.09,24.78,24.78,0,0,0-.25,3.13c0,.46,0,.92,0,1.39,0,.13,0,.26,0,.39l0,.33a23.85,23.85,0,0,0,1,5.39,24.61,24.61,0,0,0,3.82,7.71c.39.53.8,1,1.23,1.54s.82.88,1.25,1.3,1,1,1.56,1.42l.15.12c.53.44,1.08.85,1.65,1.24h0a23,23,0,0,0,2,1.22c.23.13.45.27.68.39.47.24,1,.46,1.45.67a23,23,0,0,0,2.59,1,24.48,24.48,0,0,0,8.16,1.11l.25,0a24.82,24.82,0,0,0,4.26-.56c.26-.08.62-.17,1-.25l.26-.07.08,0,.19,0,.14,0c.47-.14.94-.27,1.4-.44.74-.26,1.47-.57,2.18-.9.55-.26,1.08-.55,1.61-.85a24.77,24.77,0,0,0,4-2.82l.31-.27a25.62,25.62,0,0,0,2.39-2.5,23.23,23.23,0,0,0,1.65-2.19,22.23,22.23,0,0,0,1.23-2c.36-.67.69-1.37,1-2.07s.56-1.43.79-2.17.38-1.32.53-2c.07-.32.16-.64.22-1,0-.14.05-.28.07-.41.1-.57.15-1.16.21-1.74s.08-1.3.09-2c0-.39,0-.77,0-1.16,0-.23-.05-.46-.06-.69-.12.23-.21.47-.33.7Q144.41,84.95,143.75,85.94Z"/><path class="cls-11" d="M130.9,66.7c.94,3.07-6.33.68-14.11,3s-13.15,8.59-14.08,5.52S106.2,66.76,114,64.4,130,63.63,130.9,66.7Z"/><path class="cls-11" d="M110.09,76.71s1.17-4.83,9.67-5.22c0,0,4.49-.08,5.53,1.39,2,2.88-6.75,0-10.32,4S108.93,78.69,110.09,76.71Z"/></g></g></g></svg>