<svg xmlns="http://www.w3.org/2000/svg" viewBox="0 0 144.94 139.75"><defs><style>.cls-1{isolation:isolate;}.cls-2{fill:#afcdab;}.cls-3{fill:#e13d21;}.cls-4{fill:#d5e8d2;}.cls-5{fill:#c24740;}.cls-6{fill:#ee766a;}.cls-7{fill:#486741;}.cls-8{fill:#eea198;}.cls-9{fill:#8eb787;}.cls-10,.cls-13,.cls-20{fill:#010101;}.cls-10,.cls-11,.cls-13,.cls-20{mix-blend-mode:overlay;}.cls-10,.cls-11{opacity:0.4;}.cls-11{fill:#fff;}.cls-12{fill:#e8a49c;}.cls-13{opacity:0.2;}.cls-14{fill:#ee7192;}.cls-15{fill:#bf481a;}.cls-16{fill:#ecbc9b;}.cls-17{fill:#362152;}.cls-18{fill:#f6d488;}.cls-19{fill:#a63617;}.cls-20{opacity:0.3;}.cls-21{fill:#623b8d;}.cls-22{fill:#25183b;}</style></defs><g class="cls-1"><g id="Layer_2" data-name="Layer 2"><g id="Capa_1" data-name="Capa 1"><path class="cls-2" d="M59.37,139.75c-16.63,0-39-1.29-42-8-.62-1.41-.76-3.66,2.1-6.43,5-4.85,23.92-2.75,54.38,1.08,27.57,3.46,58.83,7.39,66.44,1.17a3.62,3.62,0,0,0,1.46-2.62,1.26,1.26,0,0,0-.38-1.06c-2.59-2.69-14.59-2.28-25.19-1.93-11.48.39-23.35.8-30.25-1.73-3.53-1.3-5.5-3.33-5.83-6-1-7.92,13.66-18.17,15.33-19.32l1.79,2.62c-5.71,3.9-14.55,11.77-14,16.31.06.53.27,2.17,3.78,3.46,6.32,2.31,17.88,1.92,29.05,1.54,12.89-.43,24-.82,27.58,2.9a4.41,4.41,0,0,1,1.25,3.49,6.73,6.73,0,0,1-2.61,4.83c-8.66,7.08-39.25,3.23-68.84-.48-22.32-2.81-47.62-6-51.78-2-.85.83-1.79,2-1.4,2.89,2.13,4.84,27.76,7.38,57.14,5.66l.19,3.16C76.79,139.31,69.05,139.75,59.37,139.75Z"/><path class="cls-3" d="M128.5,93.07c0,.13,0,.27-.07.42C128.45,93.35,128.48,93.21,128.5,93.07Z"/><path class="cls-4" d="M87.91,72.5c-.3-.33-.59-.63-.87-.92-.45.44-.88.89-1.3,1.37l.58.72A7.88,7.88,0,0,1,87.91,72.5Z"/><path class="cls-2" d="M90.64,68.65a22.71,22.71,0,0,0-2.15,1.61c.66.67,1.38,1.44,2.13,2.3C90.65,71.21,90.66,69.91,90.64,68.65Z"/><path class="cls-4" d="M84.9,75.06l-.43-.53c-.42.56-.82,1.14-1.18,1.73l.25.32C84,76.09,84.42,75.57,84.9,75.06Z"/><path class="cls-2" d="M128.8,89.39c0-.38,0-.77,0-1.16a24.69,24.69,0,0,0-.73-5.12c-.36,2-.79,4.2-1.36,6.47Z"/><path class="cls-2" d="M124.64,89.83a92.26,92.26,0,0,0,2-10.76,24.69,24.69,0,0,0-2-3.56,87.67,87.67,0,0,1-2.36,14.62C123.11,90,123.87,89.92,124.64,89.83Z"/><path class="cls-2" d="M97.59,81.85a90.29,90.29,0,0,0,1.3-16.74c-.64.14-1.27.32-1.89.51A90.67,90.67,0,0,1,96,79.5C96.54,80.25,97.07,81,97.59,81.85Z"/><path class="cls-2" d="M94.34,77.15A88.7,88.7,0,0,0,95,66.34a21.94,21.94,0,0,0-2.4,1.13c.06,2.29,0,4.73-.09,7.32C93.1,75.53,93.71,76.31,94.34,77.15Z"/><path class="cls-3" d="M82.24,78.14l0,.08,0-.07Z"/><path class="cls-3" d="M79.71,88.55c0,.46,0,.92,0,1.39,0,.13,0,.26,0,.39,0-.57,0-1.14,0-1.74Z"/><path class="cls-3" d="M89.06,108.3l-.43-.33a.36.36,0,0,0,0,.09c.53.44,1.07.85,1.64,1.24l0-.09C89.87,108.92,89.46,108.62,89.06,108.3Z"/><path class="cls-5" d="M120.8,107.07l-.13.3a24.38,24.38,0,0,0,2.38-2.49l-.14,0A23.79,23.79,0,0,1,120.8,107.07Z"/><path class="cls-5" d="M114.91,111c0,.1-.09.18-.13.28.55-.26,1.08-.55,1.61-.85l-.64.15Z"/><path class="cls-5" d="M92.93,110.85a.14.14,0,0,1,0,.06c.48.24,1,.46,1.45.67h0C93.92,111.36,93.43,111.11,92.93,110.85Z"/><path class="cls-2" d="M100.39,86.52a94.35,94.35,0,0,0,2.44-22c-.66,0-1.32.08-2,.17a91.62,91.62,0,0,1-1.74,19.62Q99.76,85.41,100.39,86.52Z"/><path class="cls-3" d="M126.84,98.61h.06q.43-1,.78-2.16h0C127.43,97.13,127.16,97.85,126.84,98.61Z"/><path class="cls-6" d="M80.66,82.42a.43.43,0,0,1,0-.07A23.13,23.13,0,0,0,80,85.43a.5.5,0,0,0,.08.12C80.19,84.55,80.39,83.5,80.66,82.42Z"/><path class="cls-3" d="M124.59,102.72l.1,0a23.21,23.21,0,0,0,1.22-2h-.08A23.81,23.81,0,0,1,124.59,102.72Z"/><path class="cls-2" d="M118.42,90.75l1.81-.31A86.81,86.81,0,0,0,122.86,73a24.52,24.52,0,0,0-1.94-2A84.29,84.29,0,0,1,118.42,90.75Z"/><path class="cls-2" d="M103.52,92.6A86.81,86.81,0,0,0,108,64.8a24.77,24.77,0,0,0-3.13-.26,97.13,97.13,0,0,1-3,24.56C102.37,90.22,102.94,91.38,103.52,92.6Z"/><path class="cls-2" d="M111.49,92.2a89.35,89.35,0,0,0,4.32-24.78c-.65-.35-1.33-.67-2-1a87.33,87.33,0,0,1-4.21,26.21Z"/><path class="cls-2" d="M107.34,93.29a86.89,86.89,0,0,0,4.47-27.57c-.62-.2-1.24-.38-1.87-.53A88,88,0,0,1,105.13,94C105.85,93.73,106.59,93.51,107.34,93.29Z"/><path class="cls-2" d="M116.29,91.15a83.3,83.3,0,0,0,2.64-21.77c-.38-.28-.77-.54-1.16-.8a89.82,89.82,0,0,1-4.07,23.11C114.54,91.5,115.41,91.32,116.29,91.15Z"/><path class="cls-7" d="M118.42,90.75A84.29,84.29,0,0,0,120.92,71c-.63-.58-1.3-1.13-2-1.65a83.3,83.3,0,0,1-2.64,21.77Z"/><path class="cls-7" d="M109.58,92.67a87.33,87.33,0,0,0,4.21-26.21c-.65-.28-1.31-.52-2-.74a86.89,86.89,0,0,1-4.47,27.57Z"/><path class="cls-7" d="M104.28,94.23l.85-.27a88,88,0,0,0,4.81-28.77c-.66-.15-1.32-.29-2-.39a86.81,86.81,0,0,1-4.43,27.8C103.77,93.13,104,93.68,104.28,94.23Z"/><path class="cls-7" d="M113.7,91.69a89.82,89.82,0,0,0,4.07-23.11,21.46,21.46,0,0,0-2-1.16,89.35,89.35,0,0,1-4.32,24.78C112.21,92,113,91.85,113.7,91.69Z"/><path class="cls-7" d="M99.13,84.36a91.62,91.62,0,0,0,1.74-19.62c-.67.09-1.33.23-2,.37a90.29,90.29,0,0,1-1.3,16.74C98.1,82.65,98.62,83.49,99.13,84.36Z"/><path class="cls-7" d="M96,79.5a90.67,90.67,0,0,0,1-13.88c-.68.21-1.34.45-2,.72a88.7,88.7,0,0,1-.66,10.81C94.89,77.89,95.45,78.67,96,79.5Z"/><path class="cls-7" d="M92.51,74.79c.13-2.59.15-5,.09-7.32a22.62,22.62,0,0,0-2,1.18c0,1.26,0,2.56,0,3.91C91.23,73.24,91.85,74,92.51,74.79Z"/><path class="cls-7" d="M101.78,89.1a97.13,97.13,0,0,0,3-24.56c-.47,0-.94,0-1.42,0l-.57,0a94.35,94.35,0,0,1-2.44,22C100.86,87.35,101.32,88.21,101.78,89.1Z"/><path class="cls-5" d="M120.05,107.71c.1,0,.2,0,.3-.06l.32-.28.13-.3C120.56,107.29,120.3,107.49,120.05,107.71Z"/><path class="cls-7" d="M126.73,89.58c.57-2.27,1-4.42,1.36-6.47a24.74,24.74,0,0,0-1.4-4,92.26,92.26,0,0,1-2,10.76C125.33,89.74,126,89.65,126.73,89.58Z"/><path class="cls-5" d="M112.55,112.06l.06.14c.74-.27,1.46-.57,2.17-.9,0-.1.08-.18.13-.28C114.16,111.39,113.37,111.74,112.55,112.06Z"/><path class="cls-7" d="M122.35,90.13a87.67,87.67,0,0,0,2.36-14.62A24.83,24.83,0,0,0,122.86,73a86.81,86.81,0,0,1-2.63,17.4Z"/><path class="cls-4" d="M80.66,82.42c-.27,1.08-.47,2.13-.62,3.13a92.39,92.39,0,0,1,8.88,15.37c.58-.33,1.2-.67,1.84-1A92.1,92.1,0,0,0,80.66,82.42Z"/><path class="cls-3" d="M90.27,109.21s0,0,0,0c-.4-.27-.8-.56-1.2-.86C89.46,108.62,89.87,108.92,90.27,109.21Z"/><path class="cls-4" d="M80.69,96a24.57,24.57,0,0,0,3.8,7.67l.13-.09Q82.69,99.47,80.69,96Z"/><path class="cls-4" d="M87.23,101.92a94.33,94.33,0,0,0-7.5-13.33c0,.6,0,1.17,0,1.74,0,.11,0,.21,0,.32a96.18,96.18,0,0,1,6.52,11.86Z"/><path class="cls-3" d="M92.93,110.85c.5.26,1,.51,1.48.73l0,0c-.51-.24-1-.5-1.54-.78A.19.19,0,0,1,92.93,110.85Z"/><path class="cls-4" d="M84.9,75.06c-.48.51-.94,1-1.36,1.52A90,90,0,0,1,96,97.37c.5-.22,1-.44,1.54-.65A90.72,90.72,0,0,0,84.9,75.06Z"/><path class="cls-4" d="M92.5,99c.55-.28,1.12-.55,1.71-.83a89.85,89.85,0,0,0-12-20l0,.07c-.3.6-.57,1.23-.82,1.87A90.72,90.72,0,0,1,92.5,99Z"/><path class="cls-4" d="M87.91,72.5a7.88,7.88,0,0,0-1.59,1.17A90.74,90.74,0,0,1,99.35,96c1-.38,2-.76,3.06-1.13A84.27,84.27,0,0,0,87.91,72.5Z"/><path class="cls-5" d="M110.79,112.69s0,0,0,.06c.61-.16,1.21-.34,1.8-.55l-.06-.14C112,112.28,111.4,112.49,110.79,112.69Z"/><path class="cls-8" d="M109.59,113.07c.41-.09.82-.21,1.22-.32,0,0,0,0,0-.06Z"/><path class="cls-2" d="M102.41,94.86l1.87-.63c-.25-.55-.51-1.1-.76-1.63-.58-1.22-1.15-2.38-1.74-3.5-.46-.89-.92-1.75-1.39-2.58s-.84-1.46-1.26-2.16c-.51-.87-1-1.71-1.54-2.51s-1-1.6-1.57-2.35-1.13-1.61-1.68-2.35-1.24-1.62-1.83-2.36-1.28-1.55-1.89-2.23c-.75-.86-1.47-1.63-2.13-2.3-.5.42-1,.86-1.45,1.32.28.29.57.59.87.92A84.27,84.27,0,0,1,102.41,94.86Z"/><path class="cls-2" d="M94.21,98.18c.58-.27,1.17-.54,1.79-.81A90,90,0,0,0,83.54,76.58l-.25-.32c-.38.61-.73,1.24-1.05,1.88h0A89.85,89.85,0,0,1,94.21,98.18Z"/><path class="cls-2" d="M90.76,99.91c.55-.3,1.14-.6,1.74-.9A90.72,90.72,0,0,0,81.38,80.09a22.21,22.21,0,0,0-.76,2.26.43.43,0,0,0,0,.07A92.1,92.1,0,0,1,90.76,99.91Z"/><path class="cls-8" d="M90.4,109.26l-.14-.1s0,0,0,0l0,.09h0Z"/><path class="cls-2" d="M87.23,101.92c.53-.33,1.09-.66,1.69-1A92.39,92.39,0,0,0,80,85.55a.5.5,0,0,1-.08-.12,23.16,23.16,0,0,0-.25,3.12l0,0A94.33,94.33,0,0,1,87.23,101.92Z"/><path class="cls-5" d="M92.91,110.78l-.55-.3-.09,0c.23.13.45.27.68.39a.14.14,0,0,0,0-.06A.19.19,0,0,0,92.91,110.78Z"/><path class="cls-8" d="M88.56,107.92l0,0,.15.12a.36.36,0,0,1,0-.09A.18.18,0,0,0,88.56,107.92Z"/><path class="cls-2" d="M86.27,102.51a96.18,96.18,0,0,0-6.52-11.86A24.43,24.43,0,0,0,80.69,96q2,3.43,3.93,7.58C85.13,103.26,85.67,102.9,86.27,102.51Z"/><path class="cls-2" d="M97.54,96.72c.59-.25,1.19-.49,1.81-.73a90.74,90.74,0,0,0-13-22.32L85.74,73c-.44.51-.87,1-1.27,1.58l.43.53A90.72,90.72,0,0,1,97.54,96.72Z"/><path class="cls-2" d="M89.06,108.3c.4.3.8.59,1.2.86l.14.1c7.44-4.06,19.4-8.84,36.44-10.65.32-.76.59-1.48.81-2.17-18.5,1.89-31.37,7.19-39.09,11.48a.18.18,0,0,1,.07,0Z"/><path class="cls-2" d="M85.72,105.24c.4.44.82.87,1.24,1.29,7.89-4.52,21.38-10.21,41.25-12.07.08-.33.16-.65.22-1,0-.15,0-.29.07-.42.1-.57.15-1.15.21-1.73C106,93.48,92,101,85.72,105.24Z"/><path class="cls-2" d="M94.45,111.56a98.13,98.13,0,0,1,30.14-8.84,23.81,23.81,0,0,0,1.24-2c-15.27,1.83-26.32,6.08-33.47,9.81l.55.3C93.43,111.06,93.94,111.32,94.45,111.56Z"/><path class="cls-2" d="M111.07,112.68c.61-.2.91-.4,1.48-.62.82-.32,1.61-.67,2.36-1l.84-.42a97.9,97.9,0,0,0-10.4,3,24.72,24.72,0,0,0,4.24-.56C110,113,110.68,112.81,111.07,112.68Z"/><path class="cls-2" d="M120.05,107.71c.25-.22.51-.42.75-.64a23.79,23.79,0,0,0,2.11-2.17A97.77,97.77,0,0,0,97,112.54a24.31,24.31,0,0,0,3.54.83A99.47,99.47,0,0,1,120.05,107.71Z"/><path class="cls-9" d="M124.64,89.83c-.77.09-1.53.19-2.29.3l-2.12.31-1.81.31-2.13.4c-.88.17-1.75.35-2.59.54s-1.49.33-2.21.51l-1.91.47-2.24.62c-.75.22-1.49.44-2.21.67l-.85.27-1.87.63c-1.06.37-2.07.75-3.06,1.13-.62.24-1.22.48-1.81.73s-1,.43-1.54.65-1.21.54-1.79.81-1.16.55-1.71.83-1.19.6-1.74.9-1.26.68-1.84,1-1.16.67-1.69,1l-1,.59c-.6.39-1.14.75-1.65,1.1l-.13.09c.39.53.8,1,1.23,1.54C92,101,106,93.48,128.71,91.34c.06-.64.08-1.29.09-2l-2.07.19C126,89.65,125.33,89.74,124.64,89.83Z"/><path class="cls-9" d="M90.4,109.26l-.08,0c.63.43,1.28.84,2,1.21l.09,0c7.15-3.73,18.2-8,33.47-9.81h.08q.54-1,1-2.07h-.06C109.8,100.42,97.84,105.2,90.4,109.26Z"/><path class="cls-9" d="M94.45,111.56l0,0h0a22.59,22.59,0,0,0,2.57,1,97.77,97.77,0,0,1,25.94-7.64l.14,0a24.83,24.83,0,0,0,1.64-2.18l-.1,0A98.13,98.13,0,0,0,94.45,111.56Z"/><path class="cls-9" d="M100.51,113.37a24.06,24.06,0,0,0,4.6.28l.24,0a97.9,97.9,0,0,1,10.4-3l.64-.15a24.41,24.41,0,0,0,4-2.8c-.1,0-.2,0-.3.06A99.47,99.47,0,0,0,100.51,113.37Z"/><path class="cls-9" d="M87,106.53q.75.73,1.56,1.41l0,0c7.72-4.29,20.59-9.59,39.09-11.48h0c.21-.65.38-1.31.53-2C108.34,96.32,94.85,102,87,106.53Z"/><path class="cls-10" d="M127.24,90.24a23.42,23.42,0,0,1-1.64,2.18,24.48,24.48,0,0,1-2.38,2.5l-.32.27a24.06,24.06,0,0,1-4,2.8c-.52.3-1.05.59-1.6.85-.71.33-1.43.63-2.17.9-.46.17-.93.3-1.4.43l-.14,0-.19.06-.07,0-.27.06c-.33.09-.69.17-1,.25a14.21,14.21,0,0,1-4.8.21c-15.84-2.58.22-5.45-3.64-12.25C101.37,84.46,78.33,94,82.29,78.2a.48.48,0,0,0,0-.12v0l0,.08c-.3.61-.57,1.24-.82,1.87a22.44,22.44,0,0,0-.77,2.27A24.06,24.06,0,0,0,80,85.4a24.62,24.62,0,0,0-.25,3.12c0,.46,0,.91,0,1.38,0,.14,0,.26,0,.39l0,.33a23.78,23.78,0,0,0,1,5.37,24.36,24.36,0,0,0,3.8,7.67c.39.53.8,1,1.23,1.54s.81.87,1.24,1.29,1,1,1.55,1.41l.15.13c.53.43,1.08.84,1.64,1.23h0c.64.44,1.29.84,2,1.22l.68.38c.47.25,1,.46,1.44.68a26.48,26.48,0,0,0,2.57,1,24.6,24.6,0,0,0,3.54.82,25,25,0,0,0,4.6.29l.24,0a25.61,25.61,0,0,0,4.24-.57l1-.24.26-.07.08,0,.19-.06.14,0c.47-.13.94-.26,1.39-.43a20.64,20.64,0,0,0,2.17-.9c.55-.26,1.08-.54,1.61-.84a24.55,24.55,0,0,0,4-2.81l.31-.27a24.33,24.33,0,0,0,2.38-2.49,24.94,24.94,0,0,0,1.65-2.18c.43-.66.84-1.34,1.22-2s.68-1.36,1-2.07.56-1.42.79-2.15.38-1.32.53-2c.07-.32.15-.64.21-1,0-.14.06-.28.08-.41.09-.57.15-1.15.2-1.73s.09-1.3.09-2c0-.39,0-.77,0-1.16,0-.23,0-.46-.06-.69-.11.23-.21.47-.33.7A23.21,23.21,0,0,1,127.24,90.24Z"/><path class="cls-11" d="M114.45,71.08c.93,3.06-6.31.68-14.06,3s-13.09,8.55-14,5.49,3.47-8.46,11.23-10.81S113.52,68,114.45,71.08Z"/><path class="cls-11" d="M93.72,81.05s1.17-4.81,9.63-5.2c0,0,4.47-.07,5.5,1.39,2,2.86-6.71,0-10.27,4S92.56,83,93.72,81.05Z"/><path class="cls-12" d="M74.92,52.7c-6.46-3.73-15.35-.41-19.86,7.41S52.14,77.29,58.6,81s15.36.4,19.87-7.42,2.92-17.18-3.55-20.9ZM61.43,76.1c-4.22-2.43-5.25-8.54-2.31-13.65s8.75-7.27,13-4.84,5.26,8.54,2.32,13.65-8.76,7.28-13,4.84Z"/><path class="cls-12" d="M10,35.51V92.67A26.43,26.43,0,0,0,18.35,112c0,1.69,8.24,3.07,18.41,3.07s18.4-1.38,18.4-3.07c0,0,0,0,0,0a26.41,26.41,0,0,0,8.33-19.26V35.51Z"/><path class="cls-13" d="M18.35,112c0,1.69,8.24,3.07,18.41,3.07s18.4-1.38,18.4-3.07c0,0,0,0,0,0a26.41,26.41,0,0,0,8.33-19.26V35.51H13.05l-.91.42h1.12s3.68,9.25,25.48,12.9,10.51,19.34,8.43,24.53c-7,17.62,14.78,29-7,33.83-12.84,2.82-21.73-.36-28.4-5A26.58,26.58,0,0,0,18.35,112Z"/><path class="cls-14" d="M63.48,35.51c0,3-12,5.47-26.75,5.47S10,38.53,10,35.51,22,30,36.73,30,63.48,32.49,63.48,35.51Z"/><path class="cls-15" d="M60.3,35.52c0,1.69-10.58,3.07-23.63,3.07S13,37.21,13,35.52s10.58-3.08,23.63-3.08S60.3,33.82,60.3,35.52Z"/><path class="cls-15" d="M13.26,35.92s1.14-6-4.75-7.4-5.75-7-1.21-5.47,7,5.08,7,7.63,7.1-7.82-4.43-17.14S-1.47-1,4.15.17c4.53,1,15.61,7.61,17.08,19.69.79,6.49-.27,10.25,1.56,9.55s.76-10,3.06-10.16,3.55,4.33,1.6,7.6-2.44,7.79.47,7.64c7.67-.4,12.82-16.37,17.42-23.89,6-9.81,12.38-2.13,7.5-.8-4.53,1.22-9.2,9.43-14.28,19.49-1.26,2.5-6,7.24,6.64-3.24s15.34-5.51,15.61-3.92-.15,3.49-8.76,5.66-6.62,4.46-2.52,3.51c1.08-.25,20.9-6.61,19.82,1.72-.72,5.6-7.06-4.87-14.21,1.27C53.05,36.1,13.26,35.92,13.26,35.92Z"/><rect class="cls-16" x="37.84" y="38.59" width="1.7" height="29.67"/><polygon class="cls-16" points="45.66 85.5 31.73 85.5 31.73 72.67 35.47 64.86 41.92 64.86 45.66 72.33 45.66 85.5"/><polygon class="cls-11" points="43.5 82.41 33.88 82.41 33.88 73.54 36.46 68.15 40.92 68.15 43.5 73.31 43.5 82.41"/><path class="cls-17" d="M22.36,78.2c-1.7-1.9-7.78-5-12,2.34C9.38,82.14,8.38,85,5,85.75c-2.36.55-7.62,4.14-3.5,10.52s-3.57,7.11,1,9.62c12.09,6.72,16.21-.18,19.51-7.22C27.19,87.6,25.78,82,22.36,78.2Z"/><path class="cls-17" d="M16.84,86.91s-12,.54-12.73,5.62c-.33,2.29,1.09,4.87,1,6.71-.1,3.07-2.17,4.55.48,5.51,6.91,2.49,15-8.73,15-8.73L18.88,84.15Z"/><path class="cls-18" d="M27.91,112.47c-1.56-5.37-.49-10.54-.67-15.36-.3-8.46-7.2-7-10.95-6.67-4.5.45-11.42,3.63-8.24,11.34,2.8,6.78.78,9.58,0,15.26h0c0,.15-.05.28-.08.42H8C6.21,123.8,29.5,118,27.91,112.47Z"/><path class="cls-19" d="M16.25,84.94s.71,4-.52,5.77c-.79,1.12,5.66,3.62,5.53,2.11-.17-1.94-1.27-3.13,0-5.32Z"/><path class="cls-15" d="M22,79.39c1.14,2,2.76,10.83-1.38,11.32-1.87.22-4.93-2.26-5.92-5.83-.41-1.47.43-4.14,2.39-6C18,78,20.67,77,22,79.39Z"/><path class="cls-17" d="M23.48,82.62c-.1,1-1.8-2.87-2.91-1s-3.32.86-4.64,4.68c-.9,2.6-2.73-2.91-2.87-3.33-.56-1.78-.56-1.78,1.93-4.6S24,77.52,23.48,82.62Z"/><path class="cls-20" d="M28,113.11a1.73,1.73,0,0,0-.07-.64,21.47,21.47,0,0,1-.75-4.19c-2.55.2-5,3.31-7.77,3.4-3.41.12-7.55-.73-6-8.56s-.59-10.32-2.8-10.72c-2.67,1.75-4.41,4.74-2.5,9.38,2.8,6.78.78,9.58,0,15.26,0,.15-.05.28-.08.42a2,2,0,0,0-.07.82L13,120.19a29.37,29.37,0,0,0,12-3.62A39.81,39.81,0,0,0,28,113.11Z"/><path class="cls-15" d="M14.23,113c12.27,6.86,12.55,10.53,19.8,9.82.77-.08,4.53-.9,5.14-.51s.41,3.89-6.71,4.74A27.22,27.22,0,0,1,15.35,123C5.11,116.45,2,106.14,14.23,113Z"/><path class="cls-21" d="M31.56,121.33s1.6,5-2.39,7.34c0,0-31.64-1.38-29-14.79.79-4,4.4-6.71,16.45-.82Z"/><path class="cls-15" d="M25.75,112.64c-11.86,7.54-11.93,11.22-19.21,10.91-.78,0-4.59-.64-5.17-.21s-.18,3.9,7,4.35a27.21,27.21,0,0,0,16.85-5C35.06,115.57,37.61,105.1,25.75,112.64Z"/><path class="cls-22" d="M8.91,121.93S7.6,127,11.72,129.12c0,0,31.51-3.15,28.13-16.39-1-4-4.77-6.46-16.45.1Z"/><path class="cls-15" d="M19.44,115.17a4.56,4.56,0,0,1,3.81-2.5c2.66-.26,8.22-5.5,7.74-7.45-.8-3.21-4.49-4-4.49-4l3.91-5.65s6.78,4.93,6.76,9c0,1,.11,4.17-8.46,8.18C19.23,117.21,19.25,115.48,19.44,115.17Z"/><path class="cls-18" d="M22.74,93.44c.76-1.12-2.58-3.93,1.42-2.84,3.13.84,9,6.14,9,6.14s-1.08,5.12-5.21,6.38C28,103.12,19.91,97.63,22.74,93.44Z"/><path class="cls-15" d="M20.8,115.66a4.54,4.54,0,0,0-4.41-1.12c-2.6.62-9.57-2.52-9.75-4.52-.29-3.3,3-5.2,3-5.2l-5.54-4.07S-.75,107.63.6,111.46c.34,1,1.26,4,10.66,5C21.67,117.52,21.09,115.89,20.8,115.66Z"/><path class="cls-18" d="M11.78,95.24c-.79-2.07-1.87-2-2.62-1.72-3.07,1-7.36,9.2-7.36,9.2s2.69,4.49,7,4.34C8.8,107.06,13.59,100,11.78,95.24Z"/></g></g></g></svg>